<?xml version="1.0" encoding="utf-8"?>
<!-- Generator: Adobe Illustrator 24.1.0, SVG Export Plug-In . SVG Version: 6.00 Build 0)  -->
<svg version="1.1" id="Calque_1" xmlns="http://www.w3.org/2000/svg" xmlns:xlink="http://www.w3.org/1999/xlink" x="0px" y="0px"
	 viewBox="0 0 49 68" style="enable-background:new 0 0 49 68;" xml:space="preserve">
<path d="M38.8,36.1c4-3.8,6.5-9.2,6.5-15.1c0-11.6-9.4-21-21-21s-21,9.4-21,21c0,5.9,2.5,11.3,6.5,15.1L0.1,61.2
	C0,61.5,0,61.9,0.2,62.1c0.3,0.3,0.6,0.3,0.9,0.2l8.9-3.1l4.7,8.4c0.2,0.3,0.4,0.4,0.8,0.4c0,0,0,0,0.1,0c0.3,0,0.6-0.3,0.8-0.5
	l8-20.7l8.2,20.7c0.1,0.3,0.4,0.5,0.8,0.5c0,0,0,0,0.1,0c0.3,0,0.6-0.2,0.8-0.4l4.6-8.4l9,3.1c0.3,0.1,0.7,0,0.9-0.2
	c0.3-0.2,0.3-0.6,0.2-0.9L38.8,36.1z M5,21C5,10.4,13.6,1.7,24.3,1.7S43.6,10.4,43.6,21S35,40.3,24.3,40.3S5,31.6,5,21z M11.2,37.3
	c1.6,1.3,3.4,2.4,5.4,3.1l-6.7,17l-7.5,2.6L11.2,37.3z M15.3,65.1L11.4,58l6.7-17c2,0.6,4,0.9,6.2,0.9l0,0L15.3,65.1z M33.5,65.1
	l-8.2-20.7l0.9-2.5l0,0c1.5-0.2,2.9-0.4,4.3-0.8l6.8,17L33.5,65.1z M38.9,57.4l-6.7-17c2-0.8,3.8-1.9,5.4-3.1l9,22.8L38.9,57.4z"/>
<path d="M24.4,36.2c8.5,0,15.3-6.8,15.3-15.2S32.9,5.8,24.4,5.8S9.1,12.6,9.1,21S15.9,36.2,24.4,36.2z M24.4,7.4
	c7.5,0,13.6,6,13.6,13.5s-6.1,13.5-13.6,13.5s-13.6-6.1-13.6-13.5S16.9,7.4,24.4,7.4z"/>
<path d="M17.9,28.9c-0.1,0.3,0.1,0.7,0.3,0.9c0.2,0.1,0.3,0.2,0.5,0.2s0.3,0,0.4-0.1l5.3-2.8l5.3,2.7c0.3,0.2,0.6,0.1,0.9-0.1
	c0.3-0.2,0.4-0.5,0.3-0.9L30,23l4.3-4.2c0.3-0.3,0.3-0.6,0.2-0.9c-0.1-0.3-0.3-0.5-0.7-0.6l-5.9-0.9l-2.6-5.4
	c-0.2-0.3-0.4-0.5-0.8-0.5s-0.6,0.2-0.8,0.5L21,16.6l-5.9,0.8c-0.3,0.1-0.6,0.3-0.7,0.6c-0.1,0.3,0,0.7,0.3,0.9l4.3,4.2L17.9,28.9z
	 M17,18.9l4.6-0.7c0.3,0,0.5-0.3,0.7-0.5l2.1-4.2l2.1,4.2c0.1,0.3,0.3,0.4,0.7,0.4l4.6,0.7L28.5,22c-0.2,0.2-0.3,0.5-0.3,0.8
	l0.9,4.6l-4.2-2.1c-0.3-0.2-0.5-0.1-0.8,0L20,27.5l0.8-4.6c0.1-0.3-0.1-0.6-0.3-0.8L17,18.9z"/>
</svg>
