<?xml version="1.0" encoding="utf-8"?>
<!-- Generator: Adobe Illustrator 24.1.0, SVG Export Plug-In . SVG Version: 6.00 Build 0)  -->
<svg version="1.1" id="Calque_1" xmlns="http://www.w3.org/2000/svg" xmlns:xlink="http://www.w3.org/1999/xlink" x="0px" y="0px"
	 viewBox="0 0 42 40" style="enable-background:new 0 0 42 40;" xml:space="preserve">
<path d="M10.3,31c-1.6,0-2.9,1.3-2.9,2.9c0,1.6,1.3,2.9,2.9,2.9s2.9-1.3,2.9-2.9S11.9,31,10.3,31z M10.3,35.8c-1,0-1.9-0.8-1.9-1.9
	S9.3,32,10.3,32s1.9,0.9,1.9,1.9S11.4,35.8,10.3,35.8z"/>
<path d="M31.3,31c-1.6,0-2.9,1.3-2.9,2.9c0,1.6,1.3,2.9,2.9,2.9s2.9-1.3,2.9-2.9S32.9,31,31.3,31z M31.3,35.8c-1,0-1.9-0.8-1.9-1.9
	s0.8-1.9,1.9-1.9c1,0,1.9,0.9,1.9,1.9S32.4,35.8,31.3,35.8z"/>
<path d="M2.3,36.2h2.4c0.9,2.2,3.1,3.8,5.6,3.8s4.7-1.5,5.6-3.8h9.7c0.9,2.2,3.1,3.8,5.6,3.8s4.7-1.5,5.6-3.8h2.6
	c1.3,0,2.3-1,2.3-2.3s-1-2.4-2.3-2.4h-0.5l-1-11.6c-0.2-1.3-1.3-2.2-2.6-2.2h0L34.8,4.2h1.6c0.3,0,0.5-0.2,0.5-0.5V0.5
	c0-0.3-0.2-0.5-0.5-0.5H7.8C7.5,0,7.3,0.2,7.3,0.5v3.2c0,0.3,0.2,0.5,0.5,0.5h1.2L6.8,19.9c-1.1,0.1-2,1-2.2,2.1l-1.9,9.5H2.3
	c-1.3,0-2.3,1-2.3,2.3S1,36.2,2.3,36.2z M10.3,39c-2.8,0-5.1-2.3-5.1-5.1s2.3-5.1,5.1-5.1s5.1,2.3,5.1,5.1
	C15.5,36.7,13.2,39,10.3,39z M16.3,35.2c0.1-0.5,0.1-0.9,0.1-1.3c0-0.5,0-0.9-0.1-1.3h9.1c-0.1,0.5-0.1,0.9-0.1,1.3
	c0,0.5,0,0.9,0.1,1.3H16.3z M31.4,39c-2.8,0-5.1-2.3-5.1-5.1s2.3-5.1,5.1-5.1s5.1,2.3,5.1,5.1S34.2,39,31.4,39z M41,33.9
	c0,0.8-0.6,1.3-1.3,1.3h-2.3c0.1-0.5,0.1-0.9,0.1-1.3c0-0.5,0-0.9-0.1-1.3h2.3C40.4,32.5,41,33.2,41,33.9z M37.1,20.1l0.9,11.4h-1
	c-0.9-2.2-3.1-3.8-5.6-3.8c-1.9,0-3.7,1-4.8,2.4l1.7-10.1c0.1-0.8,0.8-1.4,1.6-1.4h5.6C36.3,18.8,37,19.4,37.1,20.1z M26.5,24.6
	h-2.1c-0.4,0-0.8-0.4-0.8-0.8s0.3-0.9,0.8-0.9h2.4L26.5,24.6z M8.3,1h27.6v2.2H8.3V1z M33.8,4.2l0.7,13.6h-4.5c-1.3,0-2.4,1-2.6,2.2
	L27,22h-2.6c-1,0-1.8,0.8-1.8,1.8s0.8,1.8,1.8,1.8h1.9l-1,5.9H18L16.6,22c-0.1-0.5-0.3-0.9-0.5-1.2l2.2-2.2l1.1,1.8
	c0.1,0.1,0.2,0.2,0.4,0.2c0.1,0,0.2,0,0.2-0.1c0.2-0.1,0.3-0.5,0.1-0.7l-2.6-4.2c-0.1-0.2-0.4-0.3-0.7-0.1s-0.3,0.4-0.1,0.7l1,1.6
	l-2.5,2.5c-0.4-0.2-0.8-0.3-1.2-0.3h-6l2.2-15.7H33.8z M5.6,22.2c0.1-0.8,0.8-1.4,1.6-1.4h6.7c0.8,0,1.5,0.6,1.6,1.4l1.4,9.3h-1
	c-0.9-2.2-3.1-3.8-5.6-3.8s-4.7,1.5-5.6,3.8h-1L5.6,22.2z M2.3,32.5h2.1c-0.1,0.5-0.1,0.9-0.1,1.3c0,0.5,0,0.9,0.1,1.3H2.3
	c-0.7,0-1.3-0.6-1.3-1.3C1,33.2,1.6,32.5,2.3,32.5z"/>
</svg>
