<?xml version="1.0" encoding="utf-8"?>
<!-- Generator: Adobe Illustrator 24.1.0, SVG Export Plug-In . SVG Version: 6.00 Build 0)  -->
<svg version="1.1" id="Calque_1" xmlns="http://www.w3.org/2000/svg" xmlns:xlink="http://www.w3.org/1999/xlink" x="0px" y="0px"
	 viewBox="0 0 34 42" style="enable-background:new 0 0 34 42;" xml:space="preserve">
<path d="M33.1,10.4c-0.6-0.5-1.4-0.8-2.2-0.8L25,10c-2.3,0.2-4.1,2-4.1,4.3v0.8c0,0,0,0,0,0.1l-0.1,11.5c0,0,0,0,0,0.1h-3.4v-0.1
	l0.2-20.4l9.1,1.3c0.1,0,0.1,0,0.1,0c1.6,0,2.9-1.3,2.9-2.9V2.9c0-0.8-0.3-1.6-0.9-2.1C28.2,0.3,27.4,0,26.6,0l-5.9,0.4
	c-2.3,0.2-4.1,2.1-4.1,4.4v0.8c0,0,0,0,0,0.1l-0.2,21.1v0.1h-3.3c0,0,0,0,0-0.1l-0.1-12.2v-0.1l0,0c0-2.3-1.8-4.2-4.1-4.3L3.1,9.6
	c-0.8-0.1-1.6,0.2-2.2,0.8C0.3,10.9,0,11.7,0,12.5v3.9c0,1.6,1.3,2.9,2.9,2.9l0,0c0.3-0.1,6.2-0.6,9.1-1.8l0.1,9.2c0,0,0,0,0,0.1
	H5.7c-1.3,0-2.4,1-2.4,2.4c0,1.2,0.9,2.2,2.1,2.4v10C5.5,41.8,5.7,42,6,42s0.5-0.2,0.5-0.5v-10h21.1v10c0,0.3,0.2,0.5,0.5,0.5
	s0.5-0.2,0.5-0.5v-10c1.2-0.2,2.1-1.2,2.1-2.4c0-1.3-1.1-2.4-2.4-2.4h-6.5c0,0,0,0,0-0.1l0.1-10.8l9.1,1.3c0.1,0,0.1,0,0.1,0
	c1.6,0,2.9-1.3,2.9-2.9v-1.8C33.9,11.7,33.6,10.9,33.1,10.4z M17.6,4.7c0-1.7,1.4-3.1,3.1-3.3l5.9-0.4c0.5-0.1,1,0.2,1.4,0.5
	c0.4,0.4,0.6,0.8,0.6,1.4v1.8c0,1-0.8,1.8-1.8,1.8l-9.2-1.4V4.7z M2.9,18.2L2.9,18.2c-1,0-1.8-0.8-1.8-1.8v-3.9c0-0.5,0.2-1,0.6-1.4
	s0.9-0.5,1.4-0.5L8.9,11c1.7,0.1,3.1,1.6,3.1,3.3v0.1l0,0v1.8C9.6,17.5,2.9,18.2,2.9,18.2z M28.3,27.8c0.7,0,1.3,0.6,1.3,1.3
	s-0.6,1.3-1.3,1.3H5.7c-0.7,0-1.3-0.6-1.3-1.3s0.6-1.3,1.3-1.3H28.3z M32.9,14.3c0,0.5-0.2,0.9-0.5,1.3c-0.3,0.3-0.8,0.5-1.3,0.5
	l-9.2-1.3v-0.5c0-1.7,1.4-3.1,3.1-3.3l5.9-0.4c0.5-0.1,1,0.2,1.4,0.5c0.4,0.4,0.6,0.8,0.6,1.4V14.3z"/>
</svg>
