<?xml version="1.0" encoding="utf-8"?>
<!-- Generator: Adobe Illustrator 24.1.0, SVG Export Plug-In . SVG Version: 6.00 Build 0)  -->
<svg version="1.1" id="Calque_1" xmlns="http://www.w3.org/2000/svg" xmlns:xlink="http://www.w3.org/1999/xlink" x="0px" y="0px"
	 viewBox="0 0 90 60.4" style="enable-background:new 0 0 90 60.4;" xml:space="preserve">
<path d="M88.4,39.2C87.7,38.9,67.2,29,64.5,27.7c-0.7-1.1-1.3-2.2-2-3.3C55.1,11.8,48.1,0,34,0c-3.4,0-6.9,0.7-10.8,2.1
	c-0.7-0.8-2.2-1-3.9-0.4c-1.7,0.6-2.7,1.7-2.7,2.8c0,0.1,0,0.2,0,0.3C8.9,8.2,3.7,13.4,1.4,20.2c-3.6,10.4,0.3,22.3,5.2,29.9
	c0.2,0.3,0.5,0.5,0.8,0.5l0,0c4.6-0.2,10.8-1.5,17.8-3.5c0.6,0.4,1.3,0.8,1.9,1.3c5.6,3.8,11.5,7.6,19.4,10.2
	c3.7,1.2,7.2,1.8,10.4,1.8c4,0,7.6-1,10.7-2.9c4.8-3,11.8-8.7,13.8-10.9c1.8-1.9,4.8-3.5,5.5-3.6c0.2,0,0.4,0,0.7,0
	c0.6,0,1.8,0,2.2-1.2C90,41.4,90.3,40.2,88.4,39.2z M34,2c12.9,0,19.7,11.4,26.8,23.4c0.6,0.9,1.1,1.9,1.7,2.8
	c-1.6,1.2-3.5,2.4-5.6,3.6c-1.4-2.3-2.9-4.8-4.3-7.2C47,15,41,4.5,31.9,2.1C32.6,2,33.3,2,34,2z M7.9,48.5C3.5,41.3,0,30.4,3.3,20.9
	C5.3,15,9.6,10.5,16,7.2c-0.1,0.2-0.2,0.5-0.3,0.7C13.1,15.1,16.2,29,24,45.3C17.7,47.2,12.2,48.3,7.9,48.5z M25.9,44.8
	C18.4,29,15.2,15.2,17.6,8.6c0.6-1.6,1.5-2.7,2.6-3.2l0,0c15-6.8,22.9,6.9,30.6,20.2c1.4,2.4,2.8,4.9,4.3,7.2
	c-6.9,3.8-15.6,7.6-24.7,10.6C28.9,43.9,27.4,44.4,25.9,44.8z M86.6,41.1c-1.1,0.2-4.6,2.1-6.6,4.3c-1.7,1.8-8.5,7.5-13.4,10.5
	c-5,3.1-11.6,3.4-19.4,0.8c-7.7-2.5-13.4-6.3-18.9-10c-0.2-0.1-0.4-0.2-0.5-0.4c1.1-0.3,2.2-0.7,3.3-1C40.7,42.1,50,38,57.1,34l0,0
	l0,0c2.6-1.5,4.9-2.9,6.8-4.4c3.5,1.7,23,11.1,23.6,11.4l0,0C87.3,41,86.9,41,86.6,41.1z"/>
<path d="M30.6,13.4c-0.4-0.9-1.6-1.3-2.6-0.9c-0.5,0.2-0.9,0.5-1.1,0.9c-0.3,0.5-0.4,1.1-0.2,1.6c0.3,0.7,0.9,1.1,1.7,1.1
	c0.3,0,0.6-0.1,0.9-0.2c0.5-0.2,0.9-0.5,1.1-0.9C30.7,14.4,30.8,13.9,30.6,13.4z"/>
<path d="M9.6,19.8c-0.9-0.3-1.9,0.4-2.3,1.5c-0.4,1.2,0,2.3,0.9,2.6c0.1,0,0.3,0.1,0.4,0.1c0.8,0,1.5-0.6,1.8-1.6
	c0.2-0.5,0.2-0.9,0.1-1.3C10.4,20.4,10.1,20,9.6,19.8z"/>
</svg>
