<?xml version="1.0" encoding="utf-8"?>
<!-- Generator: Adobe Illustrator 24.1.0, SVG Export Plug-In . SVG Version: 6.00 Build 0)  -->
<svg version="1.1" id="Calque_1" xmlns="http://www.w3.org/2000/svg" xmlns:xlink="http://www.w3.org/1999/xlink" x="0px" y="0px"
	 viewBox="0 0 68 68" style="enable-background:new 0 0 68 68;" xml:space="preserve">
<path d="M47.9,4.7L47.9,4.7c0.2-0.3,0.2-0.8-0.1-1l-3-3.4l-0.1-0.1l0,0C44.5,0.1,44.4,0,44.2,0H23.6c-0.2,0-0.3,0.1-0.5,0.2l0,0
	L23,0.3l-3,3.4c-0.3,0.3-0.3,0.7-0.1,0.9l0.1,0.1C16,5.9,0,10.6,0,16.9v17.3c0,0.3,0.2,0.7,0.5,0.8l9.4,4.3H10v28
	c0,0.5,0.3,0.9,0.9,0.9h46.2c0.5,0,0.9-0.3,0.9-0.9V39.2h0.1l9.4-4.3c0.3-0.2,0.5-0.4,0.5-0.8V16.9C68,10.6,51.4,5.7,47.9,4.7z
	 M56.3,9.4v57c-15-1-20.6-7.6-21.4-8.8V15.4l3.7,3.8c0.2,0.2,0.3,0.3,0.6,0.3h0.1c0.3,0,0.5-0.2,0.6-0.4l7.1-12.8
	C49.7,7,53.1,8.1,56.3,9.4z M34,59.2c1.4,1.6,5,5,12.2,7.1H21.8C29,64.3,32.6,60.9,34,59.2z M44.2,2.2l1.9,2.2L39,17.2l-3.6-3.7
	L44.2,2.2z M42.4,1.7l-8.5,11.1L25.4,1.7H42.4z M23.6,2.2l8.8,11.3l-3.6,3.7L21.8,4.4L23.6,2.2z M27.9,19c0.2,0.3,0.3,0.4,0.6,0.4
	s0.5-0.1,0.7-0.3l3.9-4v42.5c-0.9,1.2-6.5,7.7-21.4,8.8v-57c3.1-1.3,6.4-2.3,9.1-3.1L27.9,19z M1.7,33.6V16.9c0-2.3,3.7-4.8,8.3-6.8
	v27.3L1.7,33.6z M66.3,33.6L58,37.4V10.1c4.6,2,8.3,4.5,8.3,6.8V33.6z"/>
<path d="M38.8,31.1c0,0.5,0.3,0.9,0.9,0.9h11.5c0.5,0,0.8-0.3,0.8-0.9s-0.3-0.9-0.8-0.9H39.6C39.2,30.2,38.8,30.6,38.8,31.1z"/>
</svg>
