<?xml version="1.0" encoding="utf-8"?>
<!-- Generator: Adobe Illustrator 24.1.0, SVG Export Plug-In . SVG Version: 6.00 Build 0)  -->
<svg version="1.1" id="Calque_1" xmlns="http://www.w3.org/2000/svg" xmlns:xlink="http://www.w3.org/1999/xlink" x="0px" y="0px"
	 viewBox="0 0 40 68" style="enable-background:new 0 0 40 68;" xml:space="preserve">
<style type="text/css">
	.st0{fill-rule:evenodd;clip-rule:evenodd;}
</style>
<path class="st0" d="M13,9v14h3V3c0-1.7,1.3-3,3-3h7c2.2,0,4,1.8,4,4v3c0,2.3-1.9,3.9-4.1,3.5l-7.1-1.2c-0.3,0-0.6-0.1-0.8-0.3v14h6
	v-8c0-1.7,1.3-3,3-3h7c1.6,0,3,1.3,3,3v4c0,1.7-1.4,2.9-3.1,2.6l-7.1-1.3c-0.3,0-0.5-0.1-0.8-0.3v3h5c0.6,0,1,0.4,1,1v7h3
	c2.8,0,5,2.2,5,5v23c0,2.8-2.2,5-5,5h-3.1c-0.5,2.3-2.5,4-4.9,4H11c-2.8,0-5-2.2-5-5V24c0-0.6,0.4-1,1-1h4v-8.8l-6.9,1.2
	C1.9,15.9,0,14.3,0,12v-2c0-2.2,1.8-4,4-4h6C11.7,6,13,7.3,13,9z M30,33H8v30c0,1.7,1.3,3,3,3h16c1.7,0,3-1.3,3-3V33z M8,25v6h22v-6
	H8z M11,9c0-0.5-0.4-1-1-1H4c-1.1,0-2,0.9-2,2v2c0,1,0.8,1.7,1.8,1.5l7.2-1.3V9z M28,4c0-1.1-0.9-2-2-2h-7c-0.6,0-1,0.4-1,1v3
	c0,0.6,0.5,1.2,1.1,1.3l7.1,1.2C27.2,8.7,28,8,28,7V4z M35,15c0-0.5-0.4-1-1-1h-7c-0.5,0-1,0.4-1,1v2c0,0.6,0.5,1.3,1.1,1.4l7.1,1.3
	c0.5,0.1,0.8-0.2,0.8-0.7V15z M32,33v29h3c1.7,0,3-1.3,3-3V36c0-1.7-1.3-3-3-3H32z"/>
</svg>
