<?xml version="1.0" encoding="utf-8"?>
<!-- Generator: Adobe Illustrator 24.1.0, SVG Export Plug-In . SVG Version: 6.00 Build 0)  -->
<svg version="1.1" id="Calque_1" xmlns="http://www.w3.org/2000/svg" xmlns:xlink="http://www.w3.org/1999/xlink" x="0px" y="0px"
	 viewBox="0 0 66 68" style="enable-background:new 0 0 66 68;" xml:space="preserve">
<path d="M33.9,49.6V22.3l0,0L56,13.4c0.4-0.2,0.5-0.4,0.5-0.8c0-0.3-0.2-0.7-0.5-0.8l-22.1-9l0,0v-2C33.9,0.3,33.5,0,33,0
	s-0.9,0.3-0.9,0.9v48.8C16.4,49.8,0,53,0,58.8C0,64.8,17,68,33,68s33-3.2,33-9.2S49.6,49.7,33.9,49.6z M53.3,12.6l-19.4,7.9V4.7
	L53.3,12.6z M28.5,59c0.3-0.3,1.5-0.9,3.6-1V60C30,59.9,28.8,59.3,28.5,59z M33.9,58c2.1,0.1,3.3,0.7,3.6,1c-0.3,0.3-1.5,0.9-3.6,1
	V58z M33,66.1c-18.4,0-31.2-3.9-31.2-7.4c0-3.4,12.4-7.2,30.4-7.4v5c-2.8,0.2-5.5,1-5.5,2.7c0,1.9,3.3,2.8,6.3,2.8s6.3-0.9,6.3-2.8
	c0-1.7-2.6-2.6-5.5-2.7v-4.9c18,0.1,30.4,3.9,30.4,7.4S51.4,66.1,33,66.1z"/>
<ellipse cx="46.3" cy="56.5" rx="1.8" ry="1.8"/>
</svg>
