<?xml version="1.0" encoding="utf-8"?>
<!-- Generator: Adobe Illustrator 24.1.0, SVG Export Plug-In . SVG Version: 6.00 Build 0)  -->
<svg version="1.1" id="Calque_1" xmlns="http://www.w3.org/2000/svg" xmlns:xlink="http://www.w3.org/1999/xlink" x="0px" y="0px"
	 viewBox="0 0 80 80" style="enable-background:new 0 0 80 80;" xml:space="preserve">
<path d="M40,80c0.6,0,1-0.4,1-1v-8.8c22.7,0,37.5,4.7,37.7,4.8c0.5,0.2,1.1-0.1,1.3-0.6c0.2-0.5-0.1-1.1-0.6-1.3
	c-0.2-0.1-15.2-4.9-38.3-4.9v-37l32.2-15.5c0.4-0.2,0.6-0.5,0.6-0.9s-0.2-0.7-0.6-0.9L40.4,0.1C40.1,0,39.7,0,39.5,0.2S39,0.7,39,1
	v67.3c-11.2,0.1-24.2,1.4-38.2,4.9c-0.5,0.1-0.9,0.7-0.7,1.2c0.1,0.5,0.5,0.8,1,0.8c0.1,0,0.2,0,0.2,0c13.9-3.4,26.7-4.7,37.8-4.8
	V79C39,79.6,39.4,80,40,80z M41,2.5L70.3,15L41,29.1V2.5z"/>
</svg>
