<?xml version="1.0" encoding="utf-8"?>
<!-- Generator: Adobe Illustrator 24.1.0, SVG Export Plug-In . SVG Version: 6.00 Build 0)  -->
<svg version="1.1" id="Calque_1" xmlns="http://www.w3.org/2000/svg" xmlns:xlink="http://www.w3.org/1999/xlink" x="0px" y="0px"
	 viewBox="0 0 35 35" style="enable-background:new 0 0 35 35;" xml:space="preserve">
<path d="M17.5,35c0.3,0,0.4-0.2,0.4-0.4v-3.9c9.9,0,16.4,2.1,16.5,2.1c0.2,0.1,0.5,0,0.6-0.3c0.1-0.2,0-0.5-0.3-0.6
	c-0.1,0-6.6-2.1-16.8-2.1V13.6L32,6.9c0.2-0.1,0.3-0.2,0.3-0.4c0-0.2-0.1-0.3-0.3-0.4L17.7,0c-0.1,0-0.3,0-0.4,0S17,0.3,17,0.4v29.5
	c-4.9,0-10.6,0.6-16.7,2.1c-0.2,0-0.4,0.3-0.3,0.5c0,0.2,0.2,0.4,0.4,0.4c0,0,0.1,0,0.1,0c6.1-1.5,11.7-2.1,16.5-2.1v3.8
	C17,34.8,17.2,35,17.5,35z M17.9,1.1l12.8,5.5l-12.8,6.2V1.1z"/>
</svg>
