<?xml version="1.0" encoding="utf-8"?>
<!-- Generator: Adobe Illustrator 24.1.0, SVG Export Plug-In . SVG Version: 6.00 Build 0)  -->
<svg version="1.1" id="Calque_1" xmlns="http://www.w3.org/2000/svg" xmlns:xlink="http://www.w3.org/1999/xlink" x="0px" y="0px"
	 viewBox="0 0 34 34" style="enable-background:new 0 0 34 34;" xml:space="preserve">
<path d="M17,3.1c4.5,0,5.1,0,6.9,0.1c1.7,0.1,2.6,0.4,3.2,0.6C27.8,4,28.4,4.5,29,5c0.6,0.5,1,1.2,1.3,2c0.2,0.6,0.5,1.5,0.6,3.2
	c0.1,1.8,0.1,2.3,0.1,6.9s0,5.1-0.1,6.9c-0.1,1.7-0.4,2.6-0.6,3.2c-0.6,1.5-1.7,2.7-3.2,3.2c-0.6,0.2-1.5,0.5-3.2,0.6
	c-1.8,0.1-2.3,0.1-6.9,0.1s-5.1,0-6.9-0.1c-1.7-0.1-2.6-0.4-3.2-0.6C6.2,30,5.6,29.5,5,29c-0.6-0.5-1-1.2-1.3-2
	c-0.2-0.6-0.5-1.5-0.6-3.2c-0.1-1.8-0.1-2.3-0.1-6.9s0-5.1,0.1-6.9C3.2,8.5,3.5,7.6,3.7,7C4,6.2,4.5,5.6,5,5c0.5-0.6,1.2-1,2-1.3
	c0.6-0.2,1.5-0.5,3.2-0.6C11.9,3.1,12.5,3.1,17,3.1 M17,0c-4.6,0-5.2,0-7,0.1c-1.8,0.1-3,0.4-4.1,0.8c-1.1,0.4-2.2,1.1-3,2
	c-0.9,0.8-1.5,1.9-2,3C0.5,6.9,0.2,8.2,0.1,10C0,11.8,0,12.4,0,17s0,5.2,0.1,7c0.1,1.8,0.4,3,0.8,4.1c0.4,1.1,1.1,2.2,2,3
	c0.8,0.9,1.9,1.5,3,2c1.1,0.4,2.3,0.7,4.1,0.8c1.8,0.1,2.4,0.1,7,0.1s5.2,0,7-0.1c1.8-0.1,3-0.4,4.1-0.8c2.3-0.9,4.1-2.7,5-5
	c0.4-1.1,0.7-2.3,0.8-4.1c0.1-1.8,0.1-2.4,0.1-7s0-5.2-0.1-7c-0.1-1.8-0.4-3-0.8-4.1c-0.4-1.1-1.1-2.2-2-3c-0.8-0.9-1.9-1.5-3-2
	c-1.1-0.4-2.3-0.7-4.1-0.8C22.2,0,21.6,0,17,0L17,0L17,0z"/>
<path d="M17,8.3c-4.8,0-8.7,3.9-8.7,8.7s3.9,8.7,8.7,8.7s8.7-3.9,8.7-8.7l0,0C25.7,12.2,21.8,8.3,17,8.3z M17,22.7
	c-3.1,0-5.7-2.5-5.7-5.7s2.5-5.7,5.7-5.7c3.1,0,5.7,2.5,5.7,5.7C22.7,20.1,20.1,22.7,17,22.7z"/>
<circle cx="26.1" cy="7.9" r="2"/>
</svg>
