<?xml version="1.0" encoding="utf-8"?>
<!-- Generator: Adobe Illustrator 24.1.0, SVG Export Plug-In . SVG Version: 6.00 Build 0)  -->
<svg version="1.1" id="Calque_1" xmlns="http://www.w3.org/2000/svg" xmlns:xlink="http://www.w3.org/1999/xlink" x="0px" y="0px"
	 viewBox="0 0 544 544" style="enable-background:new 0 0 544 544;" xml:space="preserve">
<style type="text/css">
	.st0{fill:#FFFFFF;}
	.st1{fill:#0055A4;}
	.st2{fill:#EF4135;}
</style>
<path class="st0" d="M272,544c-72.7,0-140.9-28.3-192.4-79.6C28.2,412.9,0,344.7,0,272c0-72.7,28.3-140.9,79.6-192.4
	C131.1,28.2,199.3,0,272,0s140.9,28.3,192.4,79.6C515.8,131.1,544,199.3,544,272s-28.3,140.9-79.6,192.4
	C412.9,515.7,344.7,544,272,544z"/>
<path d="M272,544c-72.7,0-140.9-28.3-192.4-79.6C28.2,412.9,0,344.7,0,272c0-72.7,28.3-140.9,79.6-192.4C131.1,28.2,199.3,0,272,0
	s140.9,28.3,192.4,79.6C515.8,131.1,544,199.3,544,272s-28.3,140.9-79.6,192.4C412.9,515.7,344.7,544,272,544z M272,1
	C199.6,1,131.6,29.2,80.3,80.3C29.2,131.6,1,199.6,1,272s28.2,140.4,79.3,191.7C131.6,514.9,199.6,543,272,543
	s140.4-28.2,191.7-79.3C514.9,412.4,543,344.4,543,272s-28.2-140.4-79.3-191.7C412.4,29.2,344.4,1,272,1z"/>
<g>
	<polygon class="st1" points="32.2,334.5 48.3,334.5 48.3,295.5 78.3,295.5 78.3,281.6 48.3,281.6 48.3,262.6 89.4,262.6 
		89.4,248.1 32.2,248.1 	"/>
	<path class="st1" d="M178.5,334.7l-25.4-38.8c4.4-1.8,7.9-4.6,10.9-8.7c3.1-4.2,4.6-8.9,4.6-14.1c0-17.1-11.1-25.7-33.1-25.7
		c-4.1,0-8.7,0.1-13.8,0.4c-5.6,0.3-9,0.4-9.9,0.4h-0.5v86.4h16.7v-35.7l2,0.1c2.8,0.1,5,0.3,6.8,0.3l22.6,34.9v0.5H178.5z
		 M151.9,272.7c0,4.9-1.4,8.2-4.2,10c-2.8,1.8-7.4,2.6-13.6,2.6c-1.4,0-3.3-0.1-6-0.3v-22.8c1.7-0.2,3.2-0.3,4.7-0.4
		c6.8,0,11.6,0.8,14.6,2.5C150.4,265.9,151.9,268.7,151.9,272.7z"/>
	<path d="M264.7,336.6h-22.3l-6.3-17.3h-25.7l-5.9,17.3h-22.3l36-91.6h10.1L264.7,336.6z M245.9,331.6h11.4L224.9,250h-3.3
		l-32.1,81.6H201l5.9-17.3h32.8L245.9,331.6z M236.9,307.7h-27.5l13.7-42.1L236.9,307.7z M216.4,302.7H230l-6.8-21L216.4,302.7z"/>
	<path d="M344.2,337.7h-9.9l-37.7-49.2v48.1H277v-90.5h11l36.6,46.8v-46.8h19.6V337.7z M336.7,332.7h2.4v-81.6h-9.6v56.3l-44-56.3
		H282v80.5h9.6v-57.8L336.7,332.7z"/>
	<path class="st2" d="M422,313.2c-4.4,5.6-10.7,8.5-18.5,8.5c-6.8,0-12.3-2.6-16.4-7.9c-4.2-5.4-6.2-12.4-6.2-21.5
		c0-9,2.3-16.5,6.8-22.4c4.5-5.9,10.1-8.8,17-8.8c7.5,0,12.7,1.6,16,4.9l0.5,0.5l6.8-13.5l-0.4-0.2c-6.1-4.1-14.1-6.1-23.8-6
		c-11.5,0-21.1,4.3-28.5,12.9c-7.4,8.5-11.1,19.2-11.1,32c0,13.9,3.3,24.5,10,32.5c6.7,7.9,16.2,12,28.2,12c12,0,21.2-3.4,27.5-10
		l0.3-0.3l-7.6-13.2L422,313.2z"/>
	<polygon class="st2" points="506.3,262.6 506.3,248.2 450.8,248.2 450.8,334.6 505.6,334.6 505.6,320.1 467,320.1 467,295.5 
		495.2,295.5 495.2,281.6 467,281.6 467,262.6 	"/>
</g>
<g>
	<path d="M86.9,205.7l-35.3-13.4l3.1-8.1c0.6-1.6,1.3-2.8,2.1-3.5c0.8-0.8,1.6-1.2,2.7-1.2c1-0.1,2.3,0.2,3.7,0.7l22.5,8.6
		c1.7,0.7,3,1.3,3.8,1.9c0.8,0.6,1.3,1.4,1.4,2.4c0.1,1-0.1,2.4-0.8,4.1L86.9,205.7z M59.5,187.1l-0.4,1l25.2,9.6l0.3-0.8
		c0.1-0.3,0.1-0.6,0.1-0.9c-0.1-0.3-0.2-0.5-0.4-0.6c-0.1-0.1-0.3-0.2-0.6-0.4c-0.3-0.2-0.5-0.3-0.7-0.4l-20.9-8
		c-0.7-0.3-1.3-0.4-1.8-0.4C60,186.3,59.7,186.6,59.5,187.1z"/>
	<path d="M64,163.3l5-9.4l4.7,2.5l-1.9,3.6l8.1,4.3l1.9-3.6l4.7,2.5l-1.9,3.6l11,5.8l1.9-3.6l4.7,2.5l-5,9.4L64,163.3z"/>
	<path d="M91.6,132l5,3.5l-3.7,5.3l-4.4-3.1c-0.7-0.5-1.3-0.8-1.6-0.9c-0.3-0.1-0.7,0.1-1,0.6c-0.4,0.6-0.1,1.4,1.1,2.2l2.9,2
		c0.7,0.5,1.3,0.8,1.8,1s1,0.1,1.5-0.1c2.7-1.2,4.6-2,5.6-2.3c1-0.4,1.9-0.5,2.8-0.4c0.9,0.1,1.9,0.6,3.1,1.4l7,4.8
		c1.9,1.4,3,2.7,3.1,4.1c0.2,1.4-0.5,3.2-2.1,5.4c-1.6,2.3-3.1,3.7-4.4,4.3c-1.4,0.6-3,0.2-4.8-1l-8.1-5.5l3.7-5.3l7.4,5.1
		c0.8,0.5,1.4,0.5,1.8-0.2c0.4-0.6,0.2-1.1-0.5-1.6L103,148c-1-0.7-1.7-1.1-2.2-1.4c-0.5-0.2-1-0.3-1.6-0.2
		c-0.6,0.1-1.3,0.3-2.2,0.6c-0.9,0.4-2.2,0.9-3.8,1.7c-1.8,0.8-3.4,0.6-5-0.5l-6.1-4.3c-2-1.4-2.9-2.8-2.6-4.3
		c0.3-1.4,1.2-3.3,2.7-5.5c1-1.4,1.9-2.4,2.8-3s1.9-0.9,3-0.7C88.7,130.3,90,130.9,91.6,132z"/>
	<path d="M139.9,124.1l-28.1-25.4l4.8-4.2l17.2,16.6l-14.7-19l4.8-4.2l22.1,30.7L139.9,124.1z"/>
	<path d="M133.2,69.8l5.4-3.6l5.7,3.7l-3.8,2.5l-2.9-1.9l0.7,3.4l-3.9,2.6L133.2,69.8z M136.5,78.4l8.8-5.9l3,4.4l-3.4,2.3l5.1,7.7
		l3.4-2.3l3,4.4l-3.4,2.3l7,10.4l3.4-2.3l3,4.4l-8.8,5.9L136.5,78.4z"/>
	<path d="M160.7,69.6l-2.5-4.9l11.5-6l2.5,4.9l-2.8,1.5l14.9,28.4l-5.7,3l-14.9-28.4L160.7,69.6z"/>
	<path d="M182.9,52.7l9.9-3.8l1.9,4.9l-3.8,1.5l3.3,8.6l3.8-1.5l1.9,4.9l-3.8,1.5l4.5,11.6l3.8-1.5l1.9,4.9l-9.9,3.8L182.9,52.7z"/>
	<path d="M217.1,80.3l-8.7-36.5l8.7-2.1l5.6,16.7l-2.2-17.5l8.7-2l8.7,36.5l-5.4,1.3l-4.8-20.4l1.9,21l-3.7,0.9l-8-19.3l4.7,20.1
		L217.1,80.3z"/>
	<path d="M245.6,36.4l10.7-1l0.5,5.3l-4.1,0.4l0.8,9.2l4.1-0.4l0.5,5.3l-4.1,0.4l1.1,12.5l4.1-0.4l0.5,5.3L249,74L245.6,36.4z"/>
	<path d="M272.2,34.9l6.4,0.2l3.1,18.2l0.6-18.1l5.6,0.2L286.6,73l-6.4-0.2l-3.1-17.9l-0.6,17.7l-5.6-0.2L272.2,34.9z"/>
	<path d="M301.8,42.4l0.9-5.4l12.8,2.1l-0.9,5.4l-3.2-0.5l-5.1,31.7l-6.5-1L305,43L301.8,42.4z"/>
	<path d="M342.6,53.3l-1.7,5.9l-6.3-1.8l1.5-5.2c0.3-0.9,0.4-1.5,0.3-1.8c0-0.4-0.3-0.6-0.8-0.8c-0.8-0.2-1.3,0.3-1.7,1.7l-1,3.4
		c-0.2,0.8-0.4,1.5-0.4,2s0.2,1,0.6,1.4c2,2.2,3.3,3.7,4,4.6c0.7,0.8,1.1,1.7,1.3,2.5c0.2,0.8,0.1,2-0.3,3.4l-2.4,8.2
		c-0.7,2.3-1.6,3.7-2.9,4.3c-1.3,0.6-3.2,0.5-5.8-0.3c-2.6-0.8-4.5-1.7-5.5-2.9c-1-1.1-1.2-2.8-0.6-4.9l2.7-9.4l6.3,1.8l-2.5,8.7
		c-0.3,0.9,0,1.4,0.7,1.7c0.7,0.2,1.1-0.1,1.4-1l1.7-5.6c0.3-1.2,0.5-2,0.6-2.5c0.1-0.5,0-1.1-0.3-1.6c-0.2-0.5-0.7-1.2-1.3-1.9
		c-0.6-0.7-1.6-1.7-2.8-3c-1.3-1.4-1.7-3.1-1.1-4.9l2.1-7.3c0.7-2.4,1.8-3.6,3.2-3.8c1.4-0.2,3.5,0.1,6,0.8c1.6,0.5,2.9,1,3.8,1.7
		c0.9,0.6,1.4,1.5,1.6,2.6C343.3,50.1,343.1,51.5,342.6,53.3z"/>
	<path d="M362.6,94.9l18.9-32.7l7.5,4.3c1.5,0.9,2.5,1.7,3.2,2.6c0.7,0.9,0.9,1.8,0.8,2.8c-0.1,1-0.5,2.2-1.3,3.5l-12,20.9
		c-0.9,1.6-1.7,2.7-2.4,3.5c-0.7,0.7-1.6,1.1-2.6,1c-1,0-2.3-0.5-3.9-1.4L362.6,94.9z M385.3,70.9l-1-0.6l-13.5,23.4l0.8,0.4
		c0.3,0.2,0.6,0.2,0.9,0.2s0.6-0.1,0.7-0.3c0.1-0.1,0.2-0.3,0.5-0.5c0.2-0.3,0.4-0.5,0.5-0.6l11.1-19.3c0.4-0.7,0.6-1.3,0.7-1.7
		C386,71.5,385.8,71.1,385.3,70.9z"/>
	<path d="M408,79l8.5,6.5l-3.2,4.2l-3.3-2.5l-5.5,7.4l3.3,2.5l-3.2,4.2l-3.3-2.5l-7.6,10l3.3,2.5l-3.2,4.2l-8.5-6.5L408,79z"/>
	<path d="M428.1,138.9l5.3-4.4l-0.9-1l3.7-3.1l5,6l-14.8,12.3l-1.5-1.9l1-2.6c-2,0.3-3.8-0.5-5.5-2.6c-1-1.2-1.6-2.3-1.8-3.3
		c-0.2-0.9,0-1.9,0.6-2.7c0.5-0.9,1.4-1.8,2.7-2.9l17.9-14.9c1.5-1.3,2.7-2.1,3.7-2.6c0.9-0.5,1.9-0.5,3-0.2
		c1.1,0.3,2.3,1.3,3.6,2.9l1.5,1.9c1.1,1.3,1.7,2.5,1.8,3.6c0.1,1.1-0.2,2.1-0.9,3.1c-0.7,1-1.9,2.2-3.4,3.5l-3.5,2.9l-4.1-5
		l4.6-3.8c0.5-0.4,0.8-0.8,0.9-1.1c0.1-0.3-0.1-0.6-0.3-1c-0.2-0.2-0.4-0.3-0.8-0.3s-0.7,0.1-0.9,0.4l-18.7,15.5
		c-0.9,0.7-1.1,1.4-0.6,1.9c0.3,0.4,0.7,0.5,1,0.4C427,139.7,427.5,139.4,428.1,138.9z"/>
	<path d="M438.8,153.9l20.2-12.6c1.3-0.8,2.4-1.4,3.4-1.7s1.9-0.4,2.9,0c1,0.3,1.9,1.2,2.8,2.6l2.1,3.4c0.9,1.4,1.3,2.6,1.2,3.6
		c-0.1,1-0.5,1.9-1.2,2.6s-1.8,1.6-3.2,2.4L447,167c-1.5,1-2.8,1.6-3.7,1.8c-1,0.3-1.9,0.2-2.8-0.3c-0.9-0.5-1.8-1.4-2.6-2.9
		l-2.3-3.6C433.7,159.2,434.8,156.5,438.8,153.9z M443.6,161.4l20.3-12.7c1.1-0.7,1.5-1.4,1.1-2.1c-0.4-0.6-1.1-0.6-2.2,0.1
		l-20.4,12.8c-0.5,0.3-0.8,0.6-1,0.8c-0.2,0.3-0.1,0.6,0.1,1c0.3,0.4,0.6,0.6,0.9,0.6C442.6,162,443,161.8,443.6,161.4z"/>
	<path d="M480.6,164.5l2.8,6l-29.3,13.7l1.6,3.5l-4.8,2.2l-4.4-9.6L480.6,164.5z"/>
	<path d="M490.6,187.9l3.4,10l-5,1.7l-1.3-3.8l-8.7,2.9l1.3,3.8l-5,1.7l-1.3-3.8l-16.9,5.7l-2.1-6.1L490.6,187.9z"/>
</g>
<g>
	<path d="M453.6,397.7c0.2-9.9-5.5-18.9-14.6-22.9c-1.3-0.6-2.7-1-4.1-1.3c-0.1,0-0.2,0-0.2-0.1L432,373c-0.6,0-1.2-0.1-1.8-0.1
		c-11.8-0.5-22.3,7.7-24.7,19.2c-0.1,0.5-0.2,1.1-0.3,1.6c-0.1,0.3-0.1,0.7-0.1,1c-0.1,2.2,0,4.4,0.3,6.7c1.4,8,6.8,14.7,14.2,18
		c1.3,0.6,2.7,1,4.1,1.4l3.1,0.5c11.1,1.1,21.6-5.4,25.3-15.9c0.3-0.8,0.6-1.7,0.8-2.6c0-0.1,0-0.1,0.1-0.2l0.5-2.8
		C453.5,399.1,453.6,398.4,453.6,397.7z M452,396.2c0.1-0.4,0.1-0.7,0.2-1.1c0.2,0.7,0.2,1.5,0,2.2c0,0.1-0.1,0.2-0.2,0.2
		c-0.1,0-0.2-0.1-0.2-0.2c-0.2-0.3-0.2-0.7-0.3-1C451.8,396.6,451.9,396.6,452,396.2L452,396.2z M449.9,404.8L449.9,404.8
		L449.9,404.8c0.1,0.1,0.1,0.4,0.1,0.6c-0.1,0.8-0.5,1.5-1,2.1c-0.1,0.1-0.2,0.2-0.4,0.3c-0.1,0.1-0.3,0-0.3-0.1l0,0
		c0,0,0-0.2,0.1-0.2c0.3-0.1,0.5-0.2,0.6-0.4C449.5,406.5,449.9,405.7,449.9,404.8L449.9,404.8z M405.4,398.8
		c-0.1,0-0.1-0.2-0.1-0.3c0.3-1,0.3-2,0.2-3.1v-0.1c0.1,0.3,0.1,0.5,0.2,0.8c0.1,0.8,0,1.6-0.1,2.4
		C405.6,398.7,405.6,398.8,405.4,398.8L405.4,398.8z M406.6,404.1c-0.1,0-0.1,0-0.1-0.1s-0.1-0.2-0.2-0.3c0.2,0,0.2-0.1,0.3-0.2
		c0-0.4,0-0.8-0.1-1.2c0.2,0.5,0.2,1.1,0.2,1.7C406.7,404,406.7,404.2,406.6,404.1L406.6,404.1z M409,408c-0.1-0.2-0.1-0.3-0.1-0.5
		c0.1,0.2,0.2,0.4,0.4,0.6c0.2,0.3,0.4,0.7,0.8,0.9c0.1,0.1,0.3,0.2,0.4,0.1c0.1-0.1,0.2,0,0.2,0.1c0.1,0.2,0.1,0.4,0.1,0.7
		c0,0.3-0.2,0.3-0.4,0.2c-0.2-0.1-0.3-0.2-0.4-0.3C409.5,409.3,409.2,408.7,409,408L409,408z M411.5,412.9h-0.1
		c-0.2-0.2-0.4-0.4-0.6-0.6c-0.3-0.4-0.6-0.7-0.8-1.2c0.3,0.3,0.5,0.7,0.8,1c0.2,0.2,0.4,0.4,0.7,0.5c0.1,0,0.1,0.1,0.1,0.1
		S411.5,412.8,411.5,412.9L411.5,412.9z M411.6,409.1l0.1,0.2c0.2,0.4,0.6,0.8,1,1c0.3,0.2,0.6,0.2,0.8-0.1l0,0
		c0.1,0.2,0.2,0.5,0.2,0.8c0,0.5-0.3,0.6-0.7,0.4c-0.4-0.2-0.7-0.4-0.9-0.8C411.7,410.2,411.5,409.7,411.6,409.1L411.6,409.1z
		 M413.7,414c0,0.1-0.1,0.1-0.2,0.1c-0.2,0-0.3-0.1-0.4-0.2c-0.5-0.4-0.9-0.9-1.2-1.4c0.3,0.4,0.6,0.7,1,1c0.2,0.1,0.4,0.3,0.7,0.1
		h0.1C413.7,413.7,413.7,413.9,413.7,414L413.7,414z M414.4,409.2c-0.4,0-0.7-0.1-1-0.4c-0.2-0.1-0.3-0.3-0.5-0.4
		c-0.3-0.3-0.7-0.4-1.1-0.3h-0.3c-0.3,0-0.6-0.1-0.8-0.3c-0.1-0.2-0.2-0.3-0.3-0.5c-0.2-0.3-0.5-0.6-0.9-0.6l-0.5-0.1
		c-0.8-0.1-1.5-0.7-1.8-1.5c-0.2-0.8-0.3-1.6-0.3-2.4V402c0-0.7-0.1-1.3-0.5-1.8c-0.5-0.8-0.7-1.7-0.5-2.6c0.1-0.7,0.2-1.3,0.2-2
		c0-0.5-0.1-1-0.3-1.5c-0.1-0.1-0.1-0.2-0.1-0.4c0.1-0.8,0.3-1.6,0.5-2.3c0,0.1,0,0.2,0,0.3c0.1-0.2,0.1-0.3,0.2-0.5
		c0.1-0.8,0.3-1.5,0.5-2.2c0.6-1.7,1.4-3.3,2.4-4.8c0.1-0.1,0.1-0.2,0.2-0.2l0,0c-0.1,0.1-0.1,0.2-0.2,0.3c-0.2,0.3-0.3,0.5-0.4,0.8
		c0,0.1,0,0.2,0,0.2h0.2c0.1-0.1,0.2-0.2,0.3-0.3c0.3-0.5,0.7-1.1,1.2-1.5c0.2-0.2,0.3-0.4,0.3-0.7c0.1-0.1,0.1-0.2,0-0.2
		c-0.1,0-0.2,0-0.2,0c-0.1,0.1-0.3,0.2-0.4,0.3c-0.3,0.3-0.6,0.7-0.8,1l0,0c0.3-0.4,0.5-0.9,0.9-1.3c7.7-9.9,21.8-12.1,32-4.8
		l0.2,0.1c-0.1,0-0.2-0.1-0.2,0c0.6,0.4,1.2,0.8,1.7,1.2l-0.6-0.4c0.4,0.4,0.9,0.8,1.4,1.1c0.4,0.3,0.7,0.6,1,1
		c0,0.5,0.4,0.7,0.6,1.1l0.1,0.2c0-0.2-0.2-0.3-0.2-0.4c0.1,0,0.2,0,0.2,0.1c0.8,0.9,1.5,1.9,2.1,2.9c0,0,0.1,0.1,0,0.1
		c-0.1,0-0.1,0.2-0.1,0.3c0.1,0.3,0.2,0.7,0.4,1c0-0.1-0.1-0.2-0.1-0.4c0-0.2,0-0.1,0-0.2s0.1,0,0.2,0.1c0,0,0.1,0.1,0.1,0.2
		c0.6,1.2,1.2,2.4,1.6,3.6c-0.1,0-0.2-0.2-0.3-0.1c-0.1,0.1-0.1,0.2-0.1,0.3c0,0.2,0,0.5,0.1,0.7c0.2-0.2,0.3-0.1,0.4,0.1
		c0.2,0.3,0.4,0.7,0.5,1.1s0.2,0.8,0.2,1.2c0,0.2,0,0.3-0.1,0.5c0,0.1-0.1,0.2-0.2,0.3c-0.6,0.6-0.9,1.5-0.7,2.4
		c0.1,0.6,0.1,1.1,0,1.7c-0.1,0.7-0.5,1.2-1.1,1.4c-0.5,0.2-0.9,0.4-1.3,0.7c-0.7,0.5-1.1,1.3-1.1,2.2c0,0.3,0,0.7-0.1,1
		c-0.1,0.5-0.3,1-0.8,1.4c-0.2,0.2-0.5,0.5-0.8,0.7c-0.7,0.5-1,1.3-1,2.1c0,0.4,0,0.7-0.1,1.1c-0.1,0.6-0.5,1.1-1.1,1.2
		c-0.7,0.1-1.3,0.6-1.6,1.2c-0.1,0.1-0.1,0.3-0.2,0.4c-0.5,0.8-1.2,1.5-2.1,1.8c-0.6,0.2-1.3,0.2-1.9,0c-0.5-0.2-1.1-0.2-1.7-0.1
		c-0.4,0.1-0.8,0.2-1.3,0.3c-0.5,0.1-0.9,0-1.4-0.2c-0.7-0.4-1.4-0.5-2.2-0.4c-0.5,0.1-1.1,0-1.5-0.3c-0.3-0.2-0.7-0.3-1.1-0.3
		c-0.5,0-1,0.1-1.4,0.1c-0.7,0.1-1.5-0.1-2.1-0.5c-0.7-0.4-1.4-0.5-2.2-0.4c-0.4,0.1-0.8,0.1-1.3,0c-0.4-0.1-0.8-0.2-1.1-0.5
		l-0.4-0.3c-0.4-0.3-0.9-0.4-1.4-0.3l-0.8,0.1c-0.5,0.1-0.9-0.1-1.2-0.4l-0.4-0.3c-0.4-0.4-0.9-0.5-1.4-0.5L414.4,409.2z
		 M441.6,414.3c0,0.1,0,0.1-0.1,0.2c-0.4,0.8-1.1,1.3-2,1.5c-0.2,0.1-0.5,0-0.6-0.2c-0.1-0.2-0.1-0.4,0-0.6c0-0.1,0.1-0.2,0.2-0.2
		c0.7-0.1,1.4-0.4,1.9-1c0.1-0.1,0.2-0.3,0.4-0.2C441.6,413.8,441.6,414,441.6,414.3L441.6,414.3z M437.7,417.3
		c-0.6,0.7-1.4,1.1-2.4,1.1l-0.2-0.1c-0.1,0-0.1-0.1-0.1-0.2s0.1-0.1,0.2-0.1c0.9,0,1.7-0.4,2.3-1.1c0-0.1,0.1-0.1,0.1-0.1l0,0
		c0.1,0,0.1,0.1,0.1,0.2C437.8,417.2,437.7,417.3,437.7,417.3L437.7,417.3z M433.5,415.1c-0.5,0.5-1.2,0.8-1.9,0.7
		c-0.2,0-0.4-0.1-0.6-0.2c-0.2-0.1-0.3-0.3-0.3-0.5c-0.1-0.2,0-0.3,0.1-0.4c0.1-0.1,0.2,0,0.3,0.1c0.8,0.3,1.7,0,2.3-0.7
		c0.2-0.2,0.2-0.2,0.3,0C433.8,414.5,433.7,414.9,433.5,415.1L433.5,415.1z M424.4,416.4c0.3,0.2,0.8,0.3,1.2,0.3
		c0.3,0,0.5-0.1,0.7-0.3c0.1-0.1,0.2-0.1,0.3,0c0.2,0.3,0.1,0.8-0.2,1h-0.1c-0.3,0.2-0.7,0.2-1,0.1c-0.4-0.1-0.8-0.3-1-0.6
		c-0.1-0.2-0.2-0.3-0.1-0.5C424.2,416.4,424.2,416.3,424.4,416.4L424.4,416.4z M424.3,414.6c-0.8,0.2-1.6-0.2-2-0.9
		c-0.1-0.2-0.1-0.5-0.1-0.7c1.2,0.9,1.9,0.9,2.7,0c0.3,0.4,0.2,1.1-0.2,1.4l0,0C424.6,414.5,424.5,414.6,424.3,414.6L424.3,414.6z
		 M426.9,415.1c-0.2-0.2-0.4-0.4-0.4-0.7c0-0.1-0.1-0.3,0.1-0.3s0.2,0.1,0.2,0.1c0.8,0.5,1.8,0.3,2.4-0.4c0.1-0.2,0.2-0.1,0.2,0
		c0.2,0.4,0.1,0.8-0.2,1.1c-0.4,0.4-1,0.6-1.6,0.5C427.3,415.3,427.1,415.2,426.9,415.1L426.9,415.1z M420.8,413.2
		c-0.2,0.3-0.5,0.5-0.8,0.4c-0.9-0.1-1.6-0.8-1.8-1.7c0-0.1,0-0.1,0-0.2c0.3,0.4,0.7,0.7,1.2,0.8c0.5,0.2,1-0.1,1.3-0.5
		C420.9,412.4,421,412.8,420.8,413.2z M420.7,418.1c0.2,0.1,0.5,0.1,0.7-0.1c0.1-0.1,0.1,0,0.1,0c0.1,0.1,0.1,0.3,0,0.4l0,0
		c0,0-0.1,0.1-0.2,0.1c-0.2,0-0.4,0-0.5-0.1c-0.5-0.2-1-0.5-1.2-1C419.9,417.7,420.3,418,420.7,418.1L420.7,418.1z M417.2,412.4
		c-0.2,0.3-0.6,0.4-0.9,0.2c-0.8-0.3-1.4-1-1.5-1.8c0,0,0-0.1,0-0.2l0.4,0.5c0.2,0.3,0.5,0.4,0.8,0.6c0.4,0.2,0.8,0,1-0.3
		C417.3,411.6,417.4,412,417.2,412.4L417.2,412.4z M414.3,413.2c0-0.1,0-0.1,0-0.2s0.1,0,0.2,0.1c0.3,0.4,0.7,0.8,1.2,1
		c0.1,0.1,0.3,0.1,0.4,0.1c0.2-0.1,0.2,0,0.3,0.1c0.1,0.1,0.1,0.3,0.1,0.5c0,0.3-0.2,0.5-0.5,0.4c-0.8-0.3-1.4-1-1.7-1.8
		C414.3,413.3,414.3,413.3,414.3,413.2L414.3,413.2z M416.4,416.9c-0.7-0.4-1.3-0.9-1.7-1.5v-0.1c0.3,0.3,0.6,0.6,1,0.9
		c0.2,0.2,0.5,0.4,0.9,0.5c0.1,0,0.2,0.1,0.2,0.2l0,0l0,0C416.7,417,416.5,417,416.4,416.9L416.4,416.9z M417.2,414.7
		c0-0.1-0.1-0.3,0-0.4c0.1-0.1,0.2,0.1,0.2,0.2c0.3,0.3,0.7,0.6,1.2,0.6c0.2,0,0.4,0,0.5-0.1c0.1-0.1,0.2,0,0.2,0.1
		c0,0.1,0.1,0.2,0.1,0.2c0.2,0.5-0.1,0.8-0.8,0.7C418,415.9,417.5,415.3,417.2,414.7L417.2,414.7z M417.2,416.7
		c0.3,0.3,0.6,0.5,1,0.7c0.1,0.1,0.3,0.1,0.5,0.1c0.1-0.1,0.2,0,0.2,0.1c0,0.1,0,0.2-0.1,0.2c-0.1,0-0.1,0-0.2,0
		c-0.7-0.2-1.3-0.7-1.7-1.2C417,416.6,417.1,416.6,417.2,416.7L417.2,416.7z M417.8,417.9c0.6,0.4,1.2,0.8,1.9,1.1
		C419,418.8,418.3,418.4,417.8,417.9L417.8,417.9z M421.2,419.6c-0.6-0.2-1.1-0.5-1.5-0.9c0.3,0.2,0.6,0.4,0.9,0.5
		c0.2,0.1,0.4,0.2,0.6,0.2c0,0,0.1,0,0.1,0.1S421.3,419.6,421.2,419.6L421.2,419.6z M421.9,416.9c-0.5-0.1-0.9-0.4-1.2-0.8
		c-0.1-0.1-0.1-0.2-0.2-0.4c0-0.1-0.1-0.3,0.1-0.4c0.2-0.1,0.2,0.1,0.2,0.2c0.2,0.2,0.5,0.3,0.8,0.4s0.7,0,1-0.2
		c0.1-0.1,0.2-0.1,0.2,0c0.2,0.3,0.2,0.6,0,0.8c-0.2,0.2-0.4,0.4-0.7,0.3L421.9,416.9z M423.3,420c-0.2,0-0.4,0-0.6-0.1
		c-0.3-0.1-0.6-0.3-0.8-0.5c0.2,0.1,0.4,0.2,0.6,0.3c0.2,0.1,0.5,0.2,0.8,0.1c0.1,0,0.1,0,0.1,0.1S423.3,420,423.3,420L423.3,420z
		 M422.4,418.3c0.3,0.3,0.7,0.4,1.1,0.5c0.3,0.1,0.6,0,0.8-0.3c0.1-0.1,0.1,0,0.2,0c0.1,0.2,0,0.4-0.2,0.5
		C423.5,419.2,422.8,418.9,422.4,418.3L422.4,418.3z M425.6,420.3C425.6,420.3,425.6,420.4,425.6,420.3c-0.6,0.2-1.1,0.1-1.5-0.3
		c0.2,0.1,0.4,0.2,0.7,0.2c0.2,0.1,0.5,0,0.7-0.1h0.1L425.6,420.3L425.6,420.3z M425.5,419.2l-0.1-0.2c0.3,0.2,0.6,0.3,1,0.3
		s0.7-0.1,0.9-0.4c0.1-0.1,0.1-0.1,0.2,0c0,0.1,0,0.3-0.1,0.4C427,419.7,426.1,419.7,425.5,419.2L425.5,419.2z M428.1,420.5
		c-0.1,0.1-0.3,0.1-0.4,0.2c-0.2,0-0.3,0-0.5,0h-0.3h-0.3c-0.1,0-0.2,0-0.1-0.1c0.1-0.1,0.1,0,0.2,0c0.2,0,0.5,0,0.7,0
		c0.2,0,0.4-0.1,0.6-0.2c0,0,0.1-0.1,0.1,0C428.1,420.5,428.1,420.5,428.1,420.5L428.1,420.5z M428.1,417.8
		c-0.2-0.1-0.3-0.3-0.3-0.5c0-0.3,0.1-0.4,0.4-0.3c0.6,0.2,1.3,0.1,1.8-0.3c0.2-0.1,0.2-0.1,0.3,0.1c0.2,0.2,0.2,0.4,0.1,0.6
		c-0.1,0.2-0.3,0.4-0.6,0.5c-0.4,0.2-0.8,0.2-1.2,0.2C428.5,418,428.3,417.9,428.1,417.8L428.1,417.8z M430.5,420.6l-0.1,0.1
		c-0.5,0.2-1,0.2-1.5,0.2c-0.1,0-0.2,0-0.2-0.1c0-0.1,0.1-0.1,0.2-0.1c0.5,0,1.1-0.1,1.6-0.3c0.1,0,0.1,0,0.2,0
		C430.6,420.5,430.6,420.5,430.5,420.6L430.5,420.6z M430.7,419.4c-0.5,0.4-1.2,0.5-1.8,0.4h-0.1c-0.1,0-0.2-0.1-0.2-0.2
		c0-0.1,0.2,0,0.2,0c0.7,0.1,1.4-0.1,1.9-0.5c0.1-0.1,0.2,0,0.2,0C430.9,419.2,430.8,419.3,430.7,419.4L430.7,419.4z M430.7,420.9
		c0.7-0.3,1.4-0.4,2.2-0.5C432.2,420.7,431.5,420.9,430.7,420.9L430.7,420.9z M433.9,419.2c0,0.1-0.1,0.1-0.1,0.1
		c-0.6,0.4-1.3,0.7-2,0.6h-0.1c-0.1,0-0.2,0-0.2-0.2c0-0.2,0.2-0.1,0.2-0.1c0.5,0,1.1-0.1,1.6-0.4c0.1-0.1,0.3-0.2,0.4-0.3
		c0.1-0.1,0.1-0.1,0.2,0C434,419.1,434,419.2,433.9,419.2L433.9,419.2L433.9,419.2z M434,417.7c-0.5,0.5-1.2,0.7-1.9,0.7
		c-0.2,0-0.3-0.1-0.5-0.2c-0.2-0.1-0.2-0.4-0.2-0.6c0.1-0.2,0.2-0.2,0.4-0.2c0.6,0.1,1.2-0.1,1.7-0.5c0.1-0.1,0.2-0.2,0.3-0.1
		c0.2,0.1,0.2,0.2,0.2,0.4C434.3,417.4,434.2,417.6,434,417.7L434,417.7z M434.8,415.1c0-0.1,0.1-0.2,0.2-0.2c0,0,0,0,0.1,0
		c0.9,0.2,1.8-0.1,2.3-0.8c0.1-0.1,0.1-0.2,0.2-0.2c0.1,0.1,0.2,0.2,0.2,0.3c0.1,0.2,0,0.5-0.1,0.7c-0.5,0.7-1.3,1.2-2.2,1.1
		c-0.4,0-0.7-0.3-0.6-0.7C434.8,415.2,434.8,415.1,434.8,415.1L434.8,415.1z M434.2,420c-0.1,0-0.2-0.1-0.1-0.2s0.2-0.2,0.3-0.2
		c0.6-0.1,1.2-0.4,1.8-0.7c0.1,0,0.1-0.1,0.2-0.1c0.1,0,0.2,0,0.2,0.1c0,0.1,0,0.2-0.1,0.2C435.9,419.6,435.1,419.9,434.2,420
		L434.2,420z M438.6,418.7c-0.1,0.1-0.2,0.2-0.3,0.2c-0.6,0.3-1.2,0.6-1.9,0.8c-0.1,0-0.2,0-0.2,0c0.1-0.1,0.3-0.2,0.4-0.2
		c0.7-0.2,1.3-0.5,1.9-0.9l0.1-0.1h0.1C438.7,418.5,438.7,418.6,438.6,418.7L438.6,418.7z M438.2,418.2H438c-0.1,0-0.2,0-0.2-0.2
		c0-0.1,0.1-0.2,0.2-0.2c0.8-0.2,1.6-0.7,2.2-1.3c0.1-0.1,0.1-0.1,0.2-0.1c0.1,0.1,0.1,0.1,0,0.2c0,0.1-0.1,0.2-0.2,0.2
		C439.8,417.6,439.1,418,438.2,418.2L438.2,418.2z M442.8,416.1c0,0-0.1,0.1-0.1,0.2c-0.6,0.6-1.4,1.1-2.2,1.5c-0.1,0-0.2,0.1-0.2,0
		s0.1-0.1,0.2-0.2c0.8-0.4,1.6-0.9,2.2-1.5l0.1-0.1C442.8,416,442.9,416.1,442.8,416.1L442.8,416.1z M444,413.9
		c-0.4,0.6-1,1.2-1.7,1.5c-0.1,0.1-0.3,0.1-0.4,0.1c-0.1,0-0.2-0.1-0.2-0.2c0-0.1,0.1-0.1,0.2-0.2c0.9-0.3,1.7-0.9,2.1-1.7
		c0-0.1,0-0.2,0.2-0.2c0.2,0,0.1,0.2,0,0.3C444.1,413.6,444.1,413.7,444,413.9L444,413.9z M443,412.5c-0.5,0.2-0.9-0.1-0.8-0.7
		c0-0.2,0.1-0.2,0.3-0.2c0.4,0,0.8-0.1,1.1-0.4c0.4-0.3,0.7-0.7,0.9-1.1c0-0.1,0-0.2,0.1-0.2s0.1,0.1,0.2,0.2c0,0.2,0,0.3,0,0.5
		C444.6,411.4,443.9,412.2,443,412.5L443,412.5z M445.6,407.5c0.2,0,0.5-0.1,0.7-0.2c0.5-0.4,0.9-0.9,1.1-1.6c0-0.1,0-0.1,0.1-0.2
		l0.1-0.1c0.2,0.3,0.2,0.7,0.1,1c-0.1,0.6-0.4,1.2-0.9,1.6c-0.2,0.2-0.4,0.3-0.6,0.4c-0.3,0.1-0.6,0-0.7-0.2c0-0.1-0.1-0.1-0.1-0.2
		s0-0.2,0-0.3C445.3,407.5,445.3,407.5,445.6,407.5L445.6,407.5z M446.4,412.9c-0.5,0.7-1.1,1.4-1.8,1.9l-0.1,0.1
		c-0.1,0-0.2,0.1-0.2,0c0-0.1,0.1-0.1,0.1-0.2c0.8-0.5,1.5-1.2,2-2l0.1-0.2C446.5,412.6,446.5,412.8,446.4,412.9L446.4,412.9z
		 M447.6,409.7c-0.2,0.9-0.8,1.7-1.6,2.2c-0.1,0.1-0.2,0.1-0.3,0.1c-0.1,0-0.2,0-0.3-0.1c-0.1-0.1-0.1-0.2,0.1-0.2
		c0.3-0.1,0.6-0.3,0.8-0.5c0.5-0.5,0.9-1.1,1.1-1.7c0-0.1,0-0.2,0.1-0.2C447.6,409.3,447.7,409.5,447.6,409.7L447.6,409.7z
		 M448.1,403.1c-0.1-0.2-0.1-0.4-0.1-0.7c0.3,0.3,0.7,0.3,1,0l0,0l0.1-0.1c0.4-0.5,0.6-1.1,0.7-1.7c0.3,1,0.1,2-0.6,2.8
		C448.7,403.8,448.3,403.7,448.1,403.1L448.1,403.1z M449.5,408.8c-0.3,0.7-0.8,1.4-1.3,2c-0.1,0.1-0.2,0.2-0.3,0.3
		c-0.1,0-0.1,0.1-0.2,0c-0.1-0.1,0-0.1,0.1-0.2c0.3-0.2,0.6-0.5,0.8-0.8c0.4-0.5,0.7-1.1,1-1.8C449.6,408.5,449.6,408.7,449.5,408.8
		L449.5,408.8z M450.6,402.5v-0.1c0.3-0.1,0.5-0.4,0.6-0.6c0.3-0.6,0.4-1.3,0.4-2v-0.2c0.1,0.6,0.1,1.1,0,1.7
		c-0.1,0.4-0.2,0.8-0.4,1.1c-0.1,0.1-0.1,0.2-0.2,0.3c-0.1,0.1-0.2,0.1-0.3,0l0,0C450.6,402.7,450.6,402.6,450.6,402.5L450.6,402.5z
		 M451.6,404.7c-0.2,0.6-0.4,1.2-0.8,1.8c-0.1,0.1-0.2,0.3-0.3,0.2c-0.1-0.1,0.1-0.2,0.1-0.3C450.9,405.9,451.2,405.3,451.6,404.7
		c0-0.4,0.1-0.7,0.2-1.1C451.8,404,451.7,404.4,451.6,404.7L451.6,404.7z M452.5,401.3c0,0.1,0,0.1-0.1,0.2h-0.1l0,0v-0.1l0,0
		c0.3-0.8,0.5-1.7,0.5-2.6C452.8,399.6,452.7,400.4,452.5,401.3L452.5,401.3z M432.2,409.7c0.5,0.3,0.8,0.8,0.6,1.4
		c0,0.2-0.1,0.4-0.2,0.5s-0.1,0.2-0.2,0c-0.6-0.8-1.8-0.9-2.5-0.3c0,0,0,0-0.1,0.1c-0.1,0-0.1,0.2-0.2,0.1c-0.1-0.1-0.1-0.2-0.1-0.3
		c-0.1-0.5,0.1-1,0.5-1.3C430.6,409.4,431.5,409.3,432.2,409.7L432.2,409.7z M428,409.7c0.1,0.3,0.2,0.5,0.1,0.8
		c0,0.2-0.1,0.3-0.2,0.5c-0.1,0.1-0.2,0.2-0.3,0c-0.3-0.6-1-0.9-1.6-0.8c-0.4,0-0.7,0.1-1,0.4c-0.2,0.2-0.2,0.1-0.3-0.1
		c-0.1-0.5,0.1-1,0.5-1.3c0.8-0.6,1.9-0.4,2.5,0.4C427.9,409.6,428,409.7,428,409.7L428,409.7z M437.3,411.7c-0.1,0.1-0.1,0.1-0.2,0
		c-0.7-0.6-1.8-0.6-2.5,0.1h-0.1c-0.1,0.1-0.2,0.3-0.3,0.2c-0.1-0.1-0.1-0.3-0.1-0.5c0-0.1,0-0.2,0-0.2c0.1-0.5,0.5-1,0.9-1.2
		c0.5-0.3,1.2-0.4,1.7-0.2c0.6,0.2,0.9,0.9,0.6,1.5l0,0C437.3,411.5,437.3,411.7,437.3,411.7L437.3,411.7z M441.7,411.1v0.2
		c-0.1,0.4-0.2,0.4-0.5,0.2c-0.2-0.1-0.5-0.2-0.7-0.1c-0.6,0.1-1.1,0.4-1.4,0.8c0,0.1-0.1,0.2-0.2,0.1c-0.1-0.1-0.1-0.1-0.1-0.2
		c-0.1-0.3,0-0.5,0.1-0.8c0.3-0.8,1.1-1.4,1.9-1.5C441.4,409.9,441.8,410.4,441.7,411.1L441.7,411.1z M420.3,408.9
		c0.1-0.7,0.8-1.2,1.5-1.1h0.1c0.9,0.2,1.6,1,1.6,1.9c0,0.1,0,0.1,0,0.2c0,0.1,0,0.3-0.2,0.4c-0.2,0.1-0.1-0.2-0.2-0.3
		c-0.3-0.5-0.9-0.8-1.6-0.8c-0.3,0-0.7,0.1-0.9,0.4c-0.1,0.1-0.2,0.1-0.2-0.1C420.3,409.3,420.3,409.1,420.3,408.9L420.3,408.9z
		 M438.1,407.3c-0.2,0.2-0.4,0.4-0.6,0.7c0,0.1,0,0.1-0.1,0.1c-0.1,0-0.1-0.1-0.1-0.1c0-0.2,0-0.4,0-0.6c0.2-0.9,1-1.6,1.9-1.7
		c0.7-0.1,1.3,0.5,1.4,1.2c0,0.2,0,0.4-0.1,0.5c0,0.1-0.1,0.2-0.2,0C440.1,406.6,438.8,406.8,438.1,407.3L438.1,407.3z M442.2,400.8
		c0.5-0.2,1.1,0.1,1.4,0.5c0.2,0.4,0.3,1,0.1,1.4c-0.1,0-0.1-0.1-0.1-0.2c-0.2-0.5-0.8-0.8-1.4-0.6c-0.5,0.1-0.9,0.5-1.2,1
		c0,0.1,0,0.2-0.2,0.3c-0.1-0.3-0.1-0.6,0-0.9C440.9,401.7,441.5,401.1,442.2,400.8L442.2,400.8z M417.7,406.7
		c0.8,0.3,1.4,1,1.4,1.9c0,0.1,0,0.2,0,0.3c0,0.1,0,0.2-0.1,0.2s-0.1-0.1-0.1-0.2c-0.2-0.5-0.7-1-1.3-1.1c-0.4-0.1-0.9,0-1.2,0.4
		c0,0.1-0.1,0.1-0.1,0.1c-0.1,0-0.1-0.1-0.1-0.1c-0.1-0.4,0-0.9,0.3-1.3C416.9,406.6,417.4,406.6,417.7,406.7L417.7,406.7z
		 M444.6,407.2c-0.1,0-0.1-0.1-0.2-0.2c-0.2-0.2-0.5-0.3-0.8-0.2c-0.6,0.2-1.1,0.6-1.4,1.2c0,0.1,0,0.2-0.2,0.3
		c-0.1-0.3-0.1-0.7,0-1c0.2-0.6,0.6-1.1,1.1-1.4l0.2-0.1c0.5-0.3,1.1-0.1,1.4,0.4c0.1,0.2,0.1,0.4,0.1,0.6c0,0.1,0,0.1,0,0.2
		C444.7,407,444.8,407.1,444.6,407.2L444.6,407.2z M415.3,407.9c0,0.1,0,0.1-0.1,0.1c-0.1-0.1-0.1-0.2-0.2-0.3
		c-0.2-0.5-0.7-1-1.2-1.2c-0.3-0.1-0.7,0-0.9,0.2l-0.1,0.1l-0.1-0.1c-0.1-0.3-0.1-0.6,0.1-0.9c0.2-0.4,0.6-0.6,1-0.5
		C414.8,405.8,415.4,406.8,415.3,407.9L415.3,407.9z M447,402.5c-0.1-0.1-0.1-0.2-0.2-0.3c-0.2-0.4-0.7-0.6-1.1-0.4l0,0h-0.1
		c-0.4,0.2-0.8,0.7-0.9,1.1c0,0.1,0,0.1-0.1,0.2c0,0,0,0-0.1,0c-0.1-0.7,0-1.3,0.4-1.9c0.2-0.3,0.5-0.5,0.8-0.7s0.8-0.1,1,0.2
		C447.1,401.3,447.2,402,447,402.5L447,402.5z M409.7,399.2c0.3,0.6,0.4,1.3,0.3,2c0,0.1,0,0.1-0.1,0.2c-0.1,0-0.1-0.2-0.1-0.2
		c-0.1-0.3-0.2-0.6-0.3-0.8c-0.2-0.3-0.7-0.4-1-0.2c-0.1,0-0.1,0.1-0.2,0.2l-0.1,0.1c-0.2-0.5-0.1-1.1,0.3-1.5
		c0.2-0.2,0.4-0.2,0.7-0.1C409.4,398.8,409.6,399,409.7,399.2L409.7,399.2z M448.4,397.9c-0.1-0.1-0.1-0.2-0.1-0.2
		c-0.1-0.2-0.2-0.4-0.3-0.5c-0.2-0.3-0.7-0.4-1-0.2c-0.1,0-0.1,0.1-0.2,0.2c-0.1,0.2-0.2,0.4-0.3,0.5c0,0.1,0,0.2-0.1,0.2
		c-0.2-0.7,0-1.5,0.6-2.1c0.2-0.2,0.6-0.2,0.8,0C448.4,396.3,448.6,397.1,448.4,397.9L448.4,397.9z M411.6,406.6
		c0,0.1,0,0.1-0.1,0.2c-0.1-0.2-0.2-0.4-0.2-0.6c-0.1-0.3-0.4-0.6-0.6-0.8c-0.2-0.3-0.7-0.4-1-0.1l0,0l-0.1,0.1
		c-0.2-0.4-0.1-0.9,0.1-1.2c0.1-0.2,0.4-0.3,0.6-0.2c0.2,0,0.3,0.1,0.4,0.2C411.4,404.8,411.8,405.7,411.6,406.6L411.6,406.6z
		 M432.5,407.6c-0.1-1,0.6-2,1.6-2.1l0,0h0.2c0.6-0.1,1.2,0.3,1.5,0.8c0.1,0.1,0.1,0.3,0.1,0.4c-0.5-0.6-1.3-0.8-2-0.5
		c-0.7,0.3-1.1,0.8-1.2,1.9C432.6,407.9,432.6,407.7,432.5,407.6L432.5,407.6z M435.9,402.6c0.1-0.9,0.8-1.7,1.8-1.8
		c0.8-0.1,1.5,0.5,1.6,1.2c-0.5-0.7-1.4-0.8-2.1-0.4s-1.1,1.2-1,2C436,403.4,435.9,403,435.9,402.6L435.9,402.6z M427.9,407.4
		c-0.4-0.5-0.4-1.2,0-1.7c0.4-0.6,1.2-0.9,2-0.8c0.6,0.1,1.1,0.6,1.2,1.3c-0.6-0.8-1.7-0.9-2.5-0.3
		C428.1,406.2,427.8,406.8,427.9,407.4L427.9,407.4z M423,406.4c-0.4-0.6-0.3-1.3,0.1-1.8c0.4-0.5,1.1-0.8,1.7-0.6
		c0.7,0.1,1.2,0.7,1.4,1.4c-0.4-0.7-1.2-1-2-0.7C423.4,404.9,423,405.7,423,406.4L423,406.4z M418.6,405.3c-0.4-0.6-0.4-1.3,0-1.8
		c0.3-0.5,0.9-0.7,1.5-0.6c0.7,0.2,1.2,0.7,1.3,1.4c-0.4-0.7-1.2-1-1.9-0.7C418.8,403.8,418.4,404.6,418.6,405.3z M408.7,405.1
		c0,0.1,0,0.1,0,0.2v0.1c-0.1-0.1-0.1-0.2-0.1-0.3c-0.1-0.5-0.3-1-0.7-1.4c-0.2-0.2-0.3-0.3-0.6-0.1c-0.1,0.1-0.1,0-0.1-0.1
		c-0.1-0.3-0.1-0.6,0-0.9c0-0.2,0.2-0.3,0.4-0.2c0,0,0.1,0,0.1,0.1c0.1,0,0.2,0.1,0.2,0.2c0.6,0.7,0.9,1.6,0.9,2.5L408.7,405.1z
		 M450.3,395.2c0.2,0.3,0.3,0.5,0.3,0.8c0.1,0.4,0.1,0.8,0,1.3c-0.1,0-0.1-0.2-0.1-0.2c-0.1-0.3-0.2-0.6-0.4-0.8
		c-0.1-0.2-0.4-0.3-0.6-0.1l0,0c-0.1,0-0.1,0.1-0.1,0.2c-0.1,0.2-0.2,0.4-0.3,0.7c-0.1-0.6,0-1.3,0.3-1.8c0.1-0.2,0.4-0.3,0.7-0.2
		l0,0C450.3,395.1,450.3,395.1,450.3,395.2L450.3,395.2z M414.8,404.2c-0.5-0.7-0.4-1.7,0.3-2.3c0.3-0.2,0.7-0.3,1-0.2
		c0.6,0.2,1.1,0.8,1.2,1.4c-0.5-0.6-1-1.1-1.8-0.7S414.8,403.4,414.8,404.2z M443.7,397.1c-0.4,0.4-0.5,1-0.5,1.5c0,0.1,0,0.1,0,0.2
		l0,0c0,0-0.1,0-0.1-0.1c-0.3-0.7-0.2-1.4,0.1-2.1c0.2-0.4,0.7-0.7,1.2-0.6c0.5,0.1,0.9,0.6,1,1.1c-0.1-0.2-0.3-0.3-0.5-0.4
		C444.6,396.5,444,396.7,443.7,397.1z M411,395.7c-0.4,0.5-0.6,1.1-0.6,1.7c0,0.1,0,0.2,0,0.4l0,0c-0.1,0-0.1-0.1-0.1-0.2
		c-0.3-0.7-0.2-1.6,0.2-2.2c0.1-0.1,0.2-0.3,0.3-0.4c0.3-0.3,0.8-0.3,1.1,0c0.2,0.2,0.4,0.5,0.5,0.8c-0.1,0-0.1-0.1-0.2-0.1
		c-0.2-0.4-0.7-0.5-1.1-0.2C411.1,395.5,411,395.5,411,395.7L411,395.7z M408.8,388.6c0.1-0.2,0.3-0.4,0.5-0.5
		c0.2-0.1,0.5-0.1,0.7,0.1c0.1,0.1,0.1,0.2,0.1,0.3c0,0.1,0,0.1-0.1,0.1c-0.4-0.1-0.6,0.2-0.8,0.4c-0.5,0.6-0.7,1.3-0.8,2
		c0,0.1,0,0.1,0,0.2c-0.1-0.2-0.2-0.4-0.2-0.6C408.1,389.9,408.4,389.1,408.8,388.6L408.8,388.6z M449.5,392.1c-0.2-0.5-0.2-1,0-1.5
		c0.1-0.3,0.3-0.3,0.5-0.1c0.1,0.1,0.2,0.2,0.3,0.3c0.4,0.6,0.6,1.3,0.6,2v0.1l-0.1-0.2c-0.1-0.3-0.3-0.6-0.5-0.9
		c-0.1-0.1-0.2-0.3-0.4-0.2c-0.2,0.1-0.2,0.2-0.2,0.4C449.7,392,449.6,392.1,449.5,392.1z M413.2,401.4c-0.1-0.2-0.3-0.3-0.5-0.5
		c-0.4-0.3-0.9-0.3-1.2,0.1c-0.1,0.1-0.1,0.2-0.2,0.3c-0.2,0.4-0.2,0.8-0.2,1.2v0.2H411c-0.3-0.6-0.3-1.2-0.1-1.8
		c0.2-0.5,0.7-0.8,1.2-0.7c0.2,0.1,0.3,0.1,0.4,0.3C412.9,400.7,413.1,401,413.2,401.4L413.2,401.4z M407.4,398.8
		c0,0.2,0,0.4-0.1,0.6c-0.1-0.2-0.1-0.4-0.1-0.6c-0.1-0.3-0.2-0.5-0.3-0.7c-0.2-0.2-0.4-0.2-0.5,0c-0.1,0.1-0.1,0.2-0.1,0.3
		s-0.1,0.2-0.1,0.3c-0.1-0.6,0-1.1,0.2-1.7c0.2-0.3,0.4-0.3,0.7,0C407.2,397.6,407.4,398.2,407.4,398.8z M408.4,394.1
		c-0.4,0.6-0.5,1.3-0.4,1.9c0,0.1,0,0.2,0,0.2c-0.1,0-0.1-0.1-0.1-0.2c-0.3-0.8-0.1-1.8,0.3-2.5c0.2-0.4,0.5-0.5,0.8-0.5
		s0.5,0.4,0.6,0.8C409,393.6,408.7,393.6,408.4,394.1L408.4,394.1z M406.9,392.7c-0.2,0-0.3,0.1-0.3,0.2c-0.1,0.3-0.3,0.5-0.4,0.8
		c0-0.1,0-0.1,0-0.2c0.1-0.6,0.2-1.3,0.5-1.8c0.1-0.2,0.2-0.4,0.4-0.3c0.2,0.1,0.3,0.3,0.3,0.5c0.1,0.6,0.1,1.2-0.1,1.8
		c-0.1-0.2,0-0.4-0.1-0.6C407.1,392.9,407.1,392.8,406.9,392.7L406.9,392.7z M448.9,392.2c-0.1,0-0.1-0.1-0.2-0.1
		c-0.1-0.1-0.2-0.2-0.3-0.3c-0.2-0.2-0.5-0.3-0.7-0.1l0,0c-0.1,0.1-0.2,0.2-0.2,0.3c-0.1,0.4-0.2,0.8-0.1,1.2c0,0.1,0.1,0.2,0,0.3
		c-0.3-0.6-0.4-1.3-0.2-2c0.1-0.3,0.4-0.5,0.7-0.4c0.1,0,0.2,0.1,0.3,0.2C448.6,391.5,448.8,391.9,448.9,392.2L448.9,392.2z
		 M448.1,386.2c0-0.2-0.1-0.4,0.1-0.5c0.2-0.1,0.4,0.1,0.5,0.2c0.3,0.3,0.5,0.7,0.7,1.1l-0.3-0.3c-0.1-0.1-0.2-0.1-0.3,0v0.1
		c0,0.3,0.1,0.6,0.2,0.9c0.1,0.2,0.2,0.4,0.2,0.5h-0.1C448.7,387.7,448.3,387,448.1,386.2L448.1,386.2z M445.7,381.8
		c0-0.2,0-0.2,0.2-0.2c0.1,0,0.1,0.1,0.2,0.1c0.8,0.6,1.4,1.3,1.8,2.1c0,0.1,0.2,0.3,0,0.4c-0.2,0.1-0.2-0.2-0.2-0.3
		c-0.5-0.7-1.1-1.3-1.8-1.9C445.8,382,445.8,381.9,445.7,381.8L445.7,381.8z M407.3,388.4c0.2-0.7,0.5-1.3,1-1.9
		c0.1-0.1,0.2-0.2,0.3-0.1s0.1,0.2,0.1,0.3c0,0.6-0.2,1.1-0.5,1.6c0-0.2,0.1-0.4,0.1-0.7c0-0.1,0-0.2-0.1-0.2s-0.2,0-0.2,0.1
		c-0.2,0.2-0.4,0.4-0.5,0.7C407.4,388.3,407.4,388.4,407.3,388.4L407.3,388.4z M447.4,386.6c0.5,0.4,0.8,1,1,1.6
		c-0.2-0.2-0.3-0.5-0.5-0.7c-0.1-0.2-0.3-0.3-0.5-0.4c-0.3-0.1-0.5,0-0.5,0.2c0,0.2,0,0.5,0,0.7c-0.2-0.4-0.3-0.9-0.3-1.3
		c0-0.2,0.2-0.3,0.5-0.2C447.2,386.5,447.3,386.5,447.4,386.6L447.4,386.6z M444.9,382.4c0.1-0.1,0.2-0.1,0.2,0
		c0.1,0.1,0.3,0.1,0.4,0.2c0.6,0.5,1.1,1,1.4,1.7c0,0.1,0.1,0.2,0.1,0.2s-0.1-0.1-0.2-0.2c-0.3-0.5-0.7-0.9-1.1-1.2
		c-0.2-0.1-0.4-0.3-0.6-0.1H445C444.9,382.9,444.9,382.6,444.9,382.4L444.9,382.4z M442.4,378.5c0.1-0.1,0.1,0,0.2,0l0.2,0.1
		c0.7,0.5,1.3,1,2,1.5c0.1,0.1,0.2,0.2,0.3,0.4c0,0.1-0.1,0.1-0.1,0.1c-0.1,0-0.1-0.1-0.2-0.1c-0.5-0.5-1-0.9-1.6-1.2
		c-0.2-0.2-0.5-0.4-0.7-0.6C442.5,378.6,442.4,378.5,442.4,378.5L442.4,378.5z"/>
	<path d="M138.9,398.7c0.2-9.9-5.5-18.9-14.6-22.8c-1.3-0.6-2.7-1-4.1-1.3c-0.1,0-0.2,0-0.2-0.1l-2.6-0.4c-0.6,0-1.2-0.1-1.8-0.1
		c-11.8-0.5-22.3,7.7-24.7,19.2c-0.1,0.5-0.2,1.1-0.3,1.6c-0.1,0.3-0.1,0.7-0.1,1c-0.1,2.2,0,4.4,0.3,6.7c1.4,8.1,6.8,14.8,14.3,18
		c1.3,0.6,2.7,1,4.1,1.4l3.1,0.5c11.1,1.1,21.6-5.4,25.3-15.9c0.3-0.8,0.6-1.7,0.8-2.6c0-0.1,0-0.1,0.1-0.2l0.5-2.8
		C138.8,400.1,138.9,399.4,138.9,398.7z M137.3,397.2c0.1-0.3,0.1-0.7,0.2-1.1c0.2,0.7,0.2,1.5,0,2.2c0,0.1-0.1,0.2-0.2,0.2
		c-0.1,0-0.2-0.1-0.2-0.2c-0.1-0.3-0.2-0.7-0.3-1C137,397.6,137.1,397.6,137.3,397.2z M135.3,405.8
		C135.3,405.8,135.3,405.7,135.3,405.8L135.3,405.8c0.1,0.1,0.1,0.3,0.1,0.6c-0.1,0.8-0.5,1.5-1,2.1c-0.1,0.1-0.2,0.2-0.4,0.3
		c-0.1,0.1-0.3,0-0.3-0.1l0,0l0,0c0-0.1,0-0.1,0.1-0.2c0.3-0.1,0.5-0.2,0.6-0.4C134.8,407.4,135.2,406.6,135.3,405.8L135.3,405.8z
		 M90.7,399.8c-0.1,0-0.1-0.2-0.1-0.3c0.3-1,0.3-2,0.2-3.1v-0.1c0.1,0.3,0.1,0.5,0.1,0.8c0.1,0.8,0,1.6-0.1,2.4
		C90.8,399.7,90.8,399.8,90.7,399.8L90.7,399.8z M91.8,405.1c-0.1,0-0.1,0-0.1-0.1l-0.2-0.3c0.2,0,0.2-0.1,0.3-0.2
		c0-0.4,0-0.8-0.1-1.2c0.2,0.5,0.2,1.1,0.2,1.7C91.9,405.1,91.9,405.1,91.8,405.1L91.8,405.1z M94.4,409c-0.1-0.2-0.1-0.3-0.1-0.5
		c0.1,0.2,0.2,0.4,0.4,0.6c0.2,0.4,0.4,0.7,0.8,0.9c0.1,0.1,0.3,0.2,0.4,0.1s0.2,0,0.2,0.1c0.1,0.2,0.1,0.4,0.1,0.7
		c0,0.2-0.2,0.3-0.4,0.2c-0.2-0.1-0.3-0.2-0.4-0.4C94.9,410.2,94.6,409.6,94.4,409L94.4,409z M96.8,413.8c-0.1,0-0.1,0-0.2,0
		c-0.2-0.2-0.4-0.4-0.6-0.6c-0.3-0.4-0.6-0.8-0.8-1.2c0.3,0.3,0.5,0.7,0.8,1c0.2,0.2,0.4,0.4,0.7,0.5c0.1,0,0.1,0.1,0.1,0.2
		S96.9,413.8,96.8,413.8L96.8,413.8z M96.9,410.1l0.1,0.2c0.2,0.4,0.6,0.8,1,1c0.3,0.2,0.6,0.2,0.8-0.1l0,0c0.1,0.2,0.2,0.5,0.2,0.8
		c0,0.5-0.3,0.6-0.7,0.4c-0.4-0.2-0.7-0.4-0.9-0.8C97.1,411.2,96.9,410.7,96.9,410.1L96.9,410.1z M99,415c0,0.1-0.1,0.1-0.2,0.1
		c-0.2,0-0.3-0.1-0.4-0.2c-0.5-0.4-0.9-0.9-1.2-1.4c0.3,0.4,0.6,0.7,1,1c0.2,0.1,0.4,0.3,0.7,0.1H99C99.1,414.7,99.1,414.9,99,415
		L99,415z M99.6,410.1c-0.4,0-0.7-0.1-1-0.4l-0.4-0.4c-0.3-0.3-0.7-0.4-1.1-0.3h-0.3c-0.3,0-0.6-0.1-0.7-0.3
		c-0.1-0.2-0.2-0.3-0.3-0.5c-0.2-0.3-0.5-0.6-0.9-0.6l-0.5-0.1c-0.8-0.1-1.5-0.7-1.8-1.5c-0.2-0.8-0.3-1.6-0.3-2.4v-0.7
		c0-0.7-0.1-1.3-0.5-1.8c-0.5-0.8-0.7-1.7-0.5-2.6c0.1-0.7,0.2-1.3,0.2-2c0-0.5-0.1-1-0.3-1.5c-0.1-0.1-0.1-0.2-0.1-0.4
		c0.1-0.8,0.3-1.6,0.5-2.3c0,0.1,0,0.2,0,0.3c0.1-0.2,0.2-0.3,0.2-0.5c0.1-0.8,0.3-1.5,0.5-2.2c0.6-1.7,1.4-3.3,2.4-4.8
		c0.1-0.1,0.1-0.2,0.2-0.2l0,0c-0.1,0.1-0.1,0.2-0.2,0.3c-0.2,0.3-0.3,0.5-0.4,0.8c0,0.1,0,0.2,0,0.2h0.2c0.1-0.1,0.2-0.2,0.3-0.3
		c0.3-0.5,0.7-1.1,1.2-1.5c0.2-0.2,0.3-0.4,0.4-0.7c0-0.1,0-0.2,0-0.2c-0.1-0.1-0.2-0.1-0.2,0c-0.1,0.1-0.3,0.2-0.4,0.3
		c-0.3,0.3-0.6,0.7-0.8,1l0,0c0.3-0.4,0.5-0.9,0.9-1.3c3.7-4.9,9.4-8.2,15.5-8.9c5.8-0.7,11.7,0.7,16.4,4l0.2,0.1
		c-0.1,0-0.2-0.1-0.3,0c0.6,0.4,1.2,0.8,1.7,1.2l-0.6-0.4c0.4,0.4,0.9,0.8,1.4,1.1c0.4,0.3,0.7,0.6,1.1,1c0,0.5,0.4,0.7,0.6,1.1
		c0,0.1,0.1,0.1,0.1,0.2c0-0.2-0.2-0.2-0.2-0.4c0.1,0,0.2,0,0.2,0.1c0.8,0.9,1.5,1.9,2.1,2.9c0,0,0.1,0.1,0,0.1
		c-0.1,0-0.1,0.2-0.1,0.3c0.1,0.4,0.2,0.7,0.4,1c0-0.1-0.1-0.2-0.1-0.4s0-0.1,0-0.2c0-0.1,0.1,0,0.2,0.1c0,0.1,0.1,0.1,0.1,0.2
		c0.6,1.2,1.2,2.4,1.6,3.6c-0.1,0-0.2-0.2-0.3-0.1s-0.1,0.2-0.1,0.3c0,0.2,0,0.5,0.1,0.7c0.2-0.2,0.3-0.1,0.4,0.1
		c0.2,0.3,0.4,0.7,0.5,1.1s0.2,0.8,0.2,1.2c0,0.2,0,0.3-0.1,0.5c0,0.1-0.1,0.2-0.2,0.3c-0.6,0.6-0.9,1.5-0.7,2.4
		c0.1,0.6,0.1,1.1,0,1.7c-0.1,0.7-0.5,1.2-1.1,1.4c-0.5,0.2-0.9,0.4-1.3,0.7c-0.7,0.5-1.1,1.3-1.1,2.2c0,0.3,0,0.7-0.1,1
		c-0.1,0.5-0.3,1-0.7,1.4l-0.7,0.8c-0.7,0.5-1,1.3-1,2.1c0,0.4,0,0.7-0.1,1.1c-0.1,0.6-0.5,1.1-1.1,1.2c-0.7,0.1-1.3,0.6-1.6,1.2
		c-0.1,0.1-0.1,0.3-0.2,0.4c-0.5,0.8-1.2,1.5-2.1,1.8c-0.6,0.2-1.3,0.2-1.9,0c-0.5-0.2-1.1-0.2-1.7-0.1c-0.4,0.1-0.8,0.2-1.3,0.3
		c-0.5,0.1-0.9,0-1.4-0.2c-0.7-0.4-1.4-0.5-2.2-0.4c-0.5,0.1-1.1,0-1.5-0.3c-0.3-0.2-0.7-0.3-1.1-0.3l-1.4,0.1
		c-0.7,0.1-1.5-0.1-2.1-0.5c-0.7-0.4-1.4-0.5-2.2-0.4c-0.4,0-0.8,0-1.3,0c-0.4-0.1-0.8-0.2-1.1-0.5l-0.4-0.3
		c-0.4-0.3-0.9-0.4-1.4-0.3l-0.8,0.1c-0.4,0.1-0.9-0.1-1.2-0.4l-0.4-0.3c-0.4-0.4-0.9-0.5-1.4-0.5h-0.3V410.1z M126.8,415.2
		c0,0.1,0,0.1-0.1,0.2c-0.4,0.8-1.1,1.3-2,1.5c-0.2,0.1-0.4,0-0.6-0.2c-0.1-0.2-0.1-0.4,0-0.6c0-0.1,0.1-0.2,0.2-0.2
		c0.7-0.1,1.4-0.4,1.9-1c0.1-0.1,0.2-0.3,0.4-0.2C126.8,414.8,126.8,415,126.8,415.2L126.8,415.2z M123.1,418.3
		c-0.6,0.7-1.4,1.1-2.4,1.1c-0.1,0-0.1,0-0.2-0.1c-0.1,0-0.1-0.1-0.1-0.2s0.1-0.1,0.2-0.1c0.9,0,1.7-0.4,2.3-1.1c0,0,0-0.1,0.1-0.1
		l0,0c0.1,0,0.1,0.1,0.1,0.2C123.1,418.1,123.1,418.2,123.1,418.3L123.1,418.3z M118.9,416.1c-0.5,0.5-1.2,0.8-1.9,0.7
		c-0.2,0-0.4-0.1-0.6-0.2c-0.2-0.1-0.3-0.3-0.3-0.5c-0.1-0.1,0-0.3,0.1-0.4c0.1-0.1,0.2,0,0.3,0.1c0.8,0.3,1.7,0,2.3-0.7
		c0.2-0.2,0.2-0.2,0.3,0C119.2,415.4,119.1,415.8,118.9,416.1L118.9,416.1z M109.8,417.4c0.3,0.2,0.8,0.3,1.2,0.3
		c0.3,0,0.5-0.1,0.7-0.3c0.1-0.1,0.2-0.1,0.3,0c0.2,0.3,0.1,0.8-0.2,1h-0.1c-0.7,0.3-1.5,0.1-2-0.5c-0.1-0.2-0.2-0.3-0.1-0.5
		C109.5,417.3,109.6,417.3,109.8,417.4L109.8,417.4z M109.7,415.6c-0.8,0.2-1.6-0.2-2-0.9c-0.1-0.2-0.1-0.5-0.1-0.7
		c1.2,0.9,1.9,0.9,2.7,0c0.3,0.4,0.2,1.1-0.2,1.4l0,0C109.9,415.5,109.8,415.5,109.7,415.6L109.7,415.6z M112.1,416
		c-0.2-0.2-0.4-0.4-0.4-0.7c0-0.1,0-0.3,0.1-0.3s0.2,0.1,0.2,0.1c0.8,0.5,1.8,0.3,2.4-0.4c0.1-0.2,0.2-0.1,0.2,0
		c0.2,0.4,0.1,0.8-0.2,1.1c-0.4,0.4-1,0.6-1.6,0.5C112.6,416.2,112.4,416.1,112.1,416L112.1,416z M106.2,414.3
		c-0.2,0.3-0.5,0.5-0.8,0.4c-0.9-0.1-1.6-0.8-1.8-1.7c0-0.1,0-0.1,0-0.2c0.3,0.4,0.7,0.7,1.2,0.8c0.5,0.2,1.1,0,1.3-0.5
		C106.3,413.4,106.3,413.8,106.2,414.3z M106,419.1c0.2,0.1,0.5,0.1,0.7-0.1c0.1-0.1,0.1,0,0.1,0c0.1,0.1,0.1,0.3,0,0.4l0,0
		c-0.1,0-0.1,0.1-0.2,0.1c-0.2,0-0.4,0-0.5-0.1c-0.5-0.2-0.9-0.5-1.2-1C105.2,418.7,105.6,419,106,419.1L106,419.1z M102.4,413.4
		c-0.2,0.3-0.6,0.4-0.9,0.2c-0.8-0.3-1.4-1-1.5-1.8c0,0,0-0.1,0-0.2c0.1,0.2,0.2,0.3,0.4,0.5c0.2,0.3,0.5,0.5,0.8,0.6
		c0.4,0.2,0.8,0,1-0.3C102.6,412.6,102.6,413,102.4,413.4L102.4,413.4z M99.6,414.3c0-0.1,0-0.2,0-0.2s0.1,0,0.2,0.1
		c0.3,0.4,0.7,0.8,1.2,1c0.1,0.1,0.3,0.1,0.4,0.1c0.2-0.1,0.2,0,0.3,0.1c0.1,0.1,0.1,0.3,0.1,0.5c0,0.3-0.2,0.5-0.5,0.4
		c-0.8-0.3-1.4-1-1.7-1.8C99.5,414.4,99.5,414.4,99.6,414.3L99.6,414.3z M101.6,417.9c-0.7-0.4-1.3-0.9-1.7-1.5l0,0
		c0.3,0.3,0.6,0.6,1,0.8c0.2,0.2,0.5,0.4,0.9,0.5c0.1,0,0.2,0.1,0.2,0.2l0,0l0,0C101.9,418,101.8,418,101.6,417.9L101.6,417.9z
		 M102.5,415.7c0-0.1-0.1-0.3,0-0.4s0.2,0.1,0.2,0.2c0.3,0.3,0.7,0.6,1.2,0.7c0.2,0,0.4,0,0.5-0.1c0.1-0.1,0.2,0,0.2,0.1
		c0,0.1,0.1,0.2,0.1,0.2c0.2,0.5-0.1,0.8-0.8,0.7C103.2,416.9,102.7,416.3,102.5,415.7C102.4,415.7,102.5,415.7,102.5,415.7
		L102.5,415.7z M102.5,417.7c0.3,0.3,0.6,0.5,1,0.7c0.1,0.1,0.3,0.1,0.5,0.1c0.1-0.1,0.2,0,0.2,0.1c0,0.1,0,0.2-0.1,0.2
		s-0.1,0-0.2,0c-0.7-0.2-1.3-0.7-1.7-1.2C102.3,417.6,102.4,417.6,102.5,417.7L102.5,417.7z M103,418.9c0.6,0.4,1.2,0.8,1.9,1.1
		C104.2,419.8,103.6,419.4,103,418.9L103,418.9z M106.5,420.6c-0.6-0.2-1.1-0.5-1.5-0.9c0.3,0.2,0.6,0.4,0.9,0.5
		c0.2,0.1,0.4,0.2,0.6,0.2c0,0,0.1,0,0.1,0.1C106.6,420.6,106.6,420.6,106.5,420.6L106.5,420.6z M107.2,417.9
		c-0.5-0.1-0.9-0.4-1.2-0.8c-0.1-0.1-0.1-0.3-0.2-0.4c0-0.1-0.1-0.3,0.1-0.4s0.2,0.1,0.2,0.2c0.2,0.2,0.5,0.3,0.8,0.4
		c0.3,0.1,0.7,0.1,1-0.2c0.1-0.1,0.2-0.1,0.2,0c0.2,0.2,0.2,0.6,0,0.8c-0.2,0.2-0.4,0.4-0.7,0.3L107.2,417.9z M108.6,421
		c-0.2,0-0.4,0-0.6-0.1c-0.3-0.1-0.6-0.3-0.8-0.5c0.2,0.1,0.4,0.2,0.6,0.3s0.5,0.2,0.8,0.1c0.1,0,0.1,0,0.2,0.1
		S108.7,421.1,108.6,421L108.6,421z M107.8,419.3c0.3,0.3,0.7,0.4,1.1,0.5c0.3,0.1,0.6,0,0.8-0.3c0.1-0.1,0.1-0.1,0.2,0
		c0.1,0.2-0.1,0.4-0.2,0.5C108.9,420.2,108.1,419.9,107.8,419.3L107.8,419.3z M111,421.3L111,421.3c-0.6,0.2-1.1,0-1.5-0.3
		c0.2,0.1,0.4,0.2,0.7,0.2c0.2,0.1,0.5,0,0.7,0h0.1L111,421.3L111,421.3z M110.8,420.2c0-0.1-0.1-0.1-0.1-0.2c0.3,0.2,0.6,0.3,1,0.3
		c0.4,0,0.7-0.2,0.9-0.4c0.1-0.1,0.1-0.1,0.2,0c0,0.1,0,0.3-0.1,0.4C112.2,420.7,111.4,420.7,110.8,420.2L110.8,420.2z M113.3,421.5
		c-0.1,0.1-0.3,0.1-0.4,0.2c-0.2,0-0.3,0-0.5,0c-0.1,0-0.2,0-0.3,0h-0.3c-0.1,0-0.2,0-0.1-0.1s0.1,0,0.2,0c0.2,0,0.5,0,0.7,0
		s0.4-0.1,0.6-0.2c0,0,0.1-0.1,0.1,0C113.3,421.5,113.4,421.5,113.3,421.5L113.3,421.5z M113.3,418.8c-0.2-0.1-0.3-0.3-0.3-0.5
		c0-0.3,0.1-0.4,0.4-0.3c0.6,0.2,1.3,0.1,1.8-0.3c0.1-0.1,0.2-0.1,0.3,0c0.2,0.2,0.2,0.4,0.1,0.6c-0.1,0.2-0.3,0.4-0.6,0.5
		c-0.4,0.2-0.8,0.2-1.2,0.2C113.7,419,113.5,418.9,113.3,418.8L113.3,418.8z M115.7,421.6l-0.1,0.1c-0.5,0.2-1,0.2-1.6,0.2
		c-0.1,0-0.2,0-0.2-0.1c0-0.1,0.1-0.1,0.2-0.1c0.5,0,1.1-0.1,1.6-0.3c0.1,0,0.1,0,0.2,0C115.8,421.5,115.8,421.5,115.7,421.6
		C115.8,421.6,115.8,421.6,115.7,421.6L115.7,421.6z M115.9,420.5c-0.5,0.4-1.2,0.5-1.8,0.4h-0.2c-0.1,0-0.2-0.1-0.2-0.2
		c0-0.1,0.2,0,0.2,0c0.7,0.1,1.4-0.1,1.9-0.5c0.1-0.1,0.2,0,0.2,0C116.1,420.2,116,420.3,115.9,420.5L115.9,420.5z M115.9,421.9
		c0.7-0.3,1.4-0.4,2.2-0.4C117.4,421.7,116.7,421.9,115.9,421.9L115.9,421.9z M119.2,420.2c0,0.1-0.1,0.1-0.1,0.2
		c-0.6,0.4-1.3,0.7-2,0.6h-0.1c-0.1,0-0.2,0-0.2-0.2c0-0.2,0.1-0.1,0.2-0.1c0.5,0,1.1-0.1,1.6-0.4c0.1-0.1,0.3-0.2,0.4-0.3
		c0.1-0.1,0.1-0.1,0.2,0C119.3,420.1,119.3,420.2,119.2,420.2L119.2,420.2L119.2,420.2z M119.3,418.7c-0.5,0.5-1.2,0.7-1.9,0.7
		c-0.2,0-0.3-0.1-0.5-0.2s-0.2-0.4-0.1-0.6c0.1-0.2,0.2-0.3,0.4-0.2c0.6,0,1.2-0.1,1.7-0.5c0.1-0.1,0.2-0.2,0.3-0.1
		c0.2,0.1,0.3,0.2,0.2,0.4C119.6,418.4,119.5,418.6,119.3,418.7L119.3,418.7z M120.1,416.1c0-0.1,0.1-0.2,0.2-0.2
		c0.9,0.2,1.8-0.1,2.3-0.8c0.1-0.1,0.1-0.2,0.2-0.2s0.2,0.2,0.2,0.3c0.1,0.2,0,0.5-0.1,0.7c-0.5,0.7-1.3,1.2-2.2,1.1
		c-0.4,0-0.7-0.3-0.6-0.7C120.1,416.2,120.1,416.1,120.1,416.1L120.1,416.1z M119.5,421c-0.1,0-0.2-0.1-0.1-0.2
		c0.1-0.1,0.2-0.2,0.3-0.2c0.6-0.1,1.2-0.4,1.8-0.7c0.1,0,0.1-0.1,0.2-0.1s0.2,0,0.2,0.1s0,0.2-0.1,0.2
		C121.2,420.6,120.4,420.9,119.5,421L119.5,421z M123.9,419.7c-0.1,0.1-0.2,0.2-0.3,0.2c-0.6,0.3-1.3,0.6-1.9,0.8
		c-0.1,0-0.2,0-0.2,0c0.1-0.1,0.3-0.2,0.4-0.2c0.7-0.2,1.3-0.5,2-0.9h0.1h0.1C124.1,419.6,124.1,419.6,123.9,419.7L123.9,419.7z
		 M123.5,419.2c-0.1,0-0.1,0-0.2,0s-0.2,0-0.2-0.2c0-0.1,0.1-0.2,0.2-0.2c0.4-0.1,0.8-0.2,1.1-0.4c0.4-0.2,0.8-0.5,1.1-0.8
		c0.1-0.1,0.1-0.1,0.2-0.1s0.1,0.1,0,0.2c0,0.1-0.1,0.2-0.1,0.2C125,418.6,124.3,419,123.5,419.2L123.5,419.2z M128,417.1
		c0,0.1-0.1,0.1-0.1,0.1c-0.6,0.6-1.4,1.1-2.2,1.5c-0.1,0-0.2,0.1-0.2,0c0-0.1,0.1-0.1,0.1-0.2c0.8-0.4,1.6-0.9,2.2-1.5
		c0,0,0.1-0.1,0.2-0.1C128.1,416.9,128,417.1,128,417.1L128,417.1z M129.2,415c-0.4,0.6-1,1.2-1.7,1.5c-0.1,0.1-0.3,0.1-0.5,0.1
		c-0.1,0-0.2-0.1-0.2-0.2c0-0.1,0.1-0.1,0.2-0.2c0.9-0.3,1.7-0.9,2.1-1.7c0-0.1,0-0.2,0.2-0.2s0.1,0.2,0,0.3
		C129.3,414.7,129.2,414.9,129.2,415L129.2,415z M128.2,413.5c-0.5,0.2-0.9-0.2-0.8-0.7c0-0.2,0.1-0.2,0.3-0.2
		c0.4,0,0.8-0.1,1.1-0.4c0.4-0.3,0.7-0.7,0.9-1.1c0-0.1,0-0.2,0.1-0.2c0.1,0,0.1,0.1,0.2,0.2c0,0.2,0,0.3,0,0.5
		C129.9,412.4,129.1,413.2,128.2,413.5L128.2,413.5z M130.9,408.5c0.2,0,0.5,0,0.7-0.2c0.5-0.4,0.9-0.9,1.1-1.6c0-0.1,0-0.1,0.1-0.2
		l0.1-0.1c0.2,0.3,0.2,0.7,0.1,1c-0.1,0.6-0.4,1.2-0.9,1.6c-0.2,0.2-0.4,0.3-0.6,0.4c-0.3,0.1-0.6,0.1-0.7-0.2l0,0
		c0-0.1-0.1-0.1-0.1-0.2s0-0.2,0-0.3C130.7,408.4,130.7,408.4,130.9,408.5L130.9,408.5z M131.7,413.9c-0.5,0.7-1.1,1.4-1.8,1.9
		l-0.1,0.1c-0.1,0-0.2,0.1-0.2,0s0.1-0.1,0.1-0.2c0.8-0.5,1.5-1.2,2-2l0.1-0.2C131.8,413.6,131.8,413.8,131.7,413.9L131.7,413.9z
		 M132.9,410.7c-0.2,0.9-0.8,1.7-1.6,2.2c-0.1,0-0.2,0.1-0.3,0.1s-0.2,0-0.3-0.1c-0.1-0.1-0.1-0.2,0.1-0.2c0.3-0.1,0.6-0.3,0.8-0.5
		c0.5-0.5,0.9-1,1.1-1.7c0-0.1,0-0.2,0.1-0.2C132.9,410.4,132.9,410.5,132.9,410.7L132.9,410.7z M133.4,404.1
		c-0.1-0.2-0.1-0.4-0.1-0.7c0.3,0.3,0.7,0.3,0.9,0c0,0,0,0,0.1-0.1l0.1-0.1c0.4-0.5,0.6-1.1,0.7-1.7c0.3,1,0.1,2-0.6,2.8
		C134.1,404.8,133.6,404.7,133.4,404.1L133.4,404.1z M134.8,409.8c-0.3,0.8-0.7,1.4-1.3,2c-0.1,0.1-0.2,0.2-0.3,0.3
		c-0.1,0-0.1,0.1-0.2,0c-0.1-0.1,0-0.1,0.1-0.2c0.3-0.2,0.6-0.5,0.8-0.8c0.4-0.5,0.7-1.1,1-1.7C134.9,409.5,134.9,409.7,134.8,409.8
		L134.8,409.8z M135.9,403.6c0-0.1,0-0.1,0.1-0.1c0.3-0.1,0.5-0.4,0.6-0.6c0.3-0.6,0.4-1.3,0.4-2v-0.2c0.1,0.6,0.1,1.1,0,1.7
		c-0.1,0.4-0.2,0.8-0.4,1.2c-0.1,0.1-0.1,0.2-0.2,0.3c-0.1,0.1-0.3,0.1-0.3,0C135.9,403.7,135.9,403.6,135.9,403.6L135.9,403.6z
		 M136.7,405.7c-0.2,0.6-0.4,1.2-0.8,1.8c-0.1,0.1-0.1,0.3-0.3,0.2s0.1-0.2,0.1-0.3C136.2,406.9,136.5,406.3,136.7,405.7
		c0.1-0.4,0.1-0.7,0.2-1.1C137,405,136.9,405.4,136.7,405.7L136.7,405.7z M137.7,402.4c0,0.1,0,0.1-0.1,0.2c0,0,0,0-0.1,0l0,0v-0.1
		l0,0c0.3-0.8,0.5-1.7,0.5-2.6C138,400.6,137.9,401.4,137.7,402.4L137.7,402.4z M117.4,410.7c0.5,0.3,0.8,0.8,0.6,1.4
		c0,0.2-0.1,0.4-0.2,0.5s-0.1,0.2-0.2,0c-0.6-0.8-1.8-0.9-2.6-0.3c0,0,0,0-0.1,0s-0.1,0.2-0.2,0.1c-0.1-0.1-0.1-0.2-0.1-0.3
		c-0.1-0.5,0.1-1,0.5-1.3C115.8,410.4,116.7,410.3,117.4,410.7L117.4,410.7z M113.2,410.7c0.1,0.3,0.2,0.6,0.1,0.8
		c0,0.2-0.1,0.3-0.2,0.4c-0.1,0.2-0.2,0.2-0.3,0c-0.3-0.6-1-0.9-1.6-0.8c-0.4,0-0.7,0.1-1,0.4c-0.2,0.2-0.2,0.1-0.2-0.1
		c-0.1-0.5,0.1-1,0.5-1.3c0.8-0.6,1.9-0.5,2.5,0.3l0,0C113.2,410.5,113.2,410.6,113.2,410.7L113.2,410.7z M122.5,412.7
		c-0.1,0.1-0.1,0.1-0.2,0c-0.7-0.6-1.8-0.6-2.5,0.1h-0.1c-0.1,0.1-0.2,0.3-0.3,0.2s-0.1-0.3-0.1-0.4s0-0.2,0-0.2
		c0.1-0.5,0.4-1,0.9-1.2c0.5-0.3,1.2-0.4,1.7-0.2c0.6,0.2,0.9,0.9,0.6,1.5V412.7z M126.9,412.1v0.2c-0.1,0.4-0.2,0.4-0.5,0.2
		c-0.2-0.1-0.5-0.2-0.7-0.1c-0.6,0.1-1.1,0.4-1.4,0.8c0,0.1-0.1,0.2-0.2,0.1s-0.1-0.1-0.1-0.2c-0.1-0.3,0-0.5,0.1-0.8
		c0.3-0.8,1.1-1.4,1.9-1.5C126.6,410.9,127.1,411.3,126.9,412.1L126.9,412.1z M105.6,409.9c0.1-0.7,0.8-1.2,1.5-1.1l0,0h0.1
		c0.9,0.2,1.6,1,1.6,1.9c0,0.1,0,0.1,0,0.2s-0.1,0.3-0.2,0.3s-0.1-0.2-0.2-0.3c-0.3-0.5-0.9-0.9-1.6-0.9c-0.3,0-0.7,0.1-0.9,0.4
		c-0.1,0.1-0.2,0.1-0.2-0.1C105.6,410.3,105.6,410.1,105.6,409.9L105.6,409.9z M123.4,408.3c-0.2,0.2-0.4,0.4-0.6,0.7
		c0,0,0,0.1-0.1,0.1s-0.1-0.1-0.1-0.1c0-0.2,0-0.4,0-0.6c0.2-0.9,1-1.6,1.9-1.7c0.7-0.1,1.3,0.5,1.4,1.2c0,0.2,0,0.4-0.1,0.6
		c0,0.1-0.1,0.2-0.2,0C125.3,407.5,124.1,407.7,123.4,408.3L123.4,408.3z M127.3,401.9c0.5-0.2,1.1,0.1,1.4,0.6
		c0.2,0.4,0.3,1,0.1,1.4c-0.1-0.1-0.1-0.1-0.1-0.2c-0.2-0.5-0.8-0.8-1.3-0.6c-0.5,0.1-0.9,0.5-1.2,1c0,0.1,0,0.2-0.2,0.3
		c-0.1-0.3-0.1-0.6,0-0.9C126.1,402.8,126.7,402.2,127.3,401.9L127.3,401.9z M102.9,407.7c0.8,0.3,1.3,1.1,1.4,1.9
		c0,0.1,0,0.2,0,0.3s0,0.2-0.1,0.2s-0.1-0.1-0.1-0.2c-0.2-0.5-0.7-0.9-1.3-1.1c-0.4-0.1-0.9,0-1.2,0.4l-0.1,0.1l0,0
		c-0.1,0-0.1-0.1-0.1-0.1c-0.1-0.4,0-0.9,0.3-1.3C102.1,407.6,102.6,407.5,102.9,407.7L102.9,407.7z M129.9,408.2
		c-0.1,0-0.1-0.1-0.2-0.2c-0.2-0.2-0.5-0.3-0.8-0.2c-0.6,0.2-1.1,0.6-1.4,1.2c0,0.1,0,0.2-0.2,0.3c-0.1-0.3-0.1-0.7,0-1
		c0.2-0.6,0.6-1.1,1.1-1.5l0.2-0.1c0.5-0.3,1.1-0.1,1.4,0.4c0.1,0.2,0.1,0.4,0.1,0.6c0,0.1,0,0.1,0,0.2
		C130,407.9,130.1,408.1,129.9,408.2L129.9,408.2z M100.5,408.9c0,0.1,0,0.1-0.1,0.2c-0.1-0.1-0.1-0.2-0.2-0.3
		c-0.2-0.5-0.7-1-1.2-1.2c-0.3-0.1-0.7,0-0.9,0.3L98,408l-0.1-0.1c-0.1-0.3,0-0.6,0.1-0.9c0.1-0.4,0.6-0.6,1-0.5
		C100,406.8,100.7,407.8,100.5,408.9L100.5,408.9z M132.3,403.5c-0.1-0.1-0.1-0.2-0.2-0.3c-0.2-0.4-0.7-0.6-1.1-0.4l0,0h-0.1
		c-0.4,0.2-0.8,0.7-0.9,1.1c0,0.1,0,0.1-0.1,0.2c0,0,0,0-0.1,0c-0.1-0.7,0-1.3,0.4-1.9c0.2-0.3,0.5-0.5,0.8-0.7
		c0.3-0.2,0.8-0.1,1,0.2C132.4,402.3,132.6,403,132.3,403.5L132.3,403.5z M95,400.2c0.3,0.6,0.4,1.3,0.3,2c0,0.1,0,0.1-0.1,0.2
		c-0.1,0.1-0.1-0.2-0.1-0.2c-0.1-0.3-0.2-0.5-0.3-0.8c-0.2-0.4-0.7-0.5-1.1-0.3c-0.1,0-0.1,0.1-0.2,0.2l-0.1,0.1
		c-0.2-0.5-0.1-1.1,0.3-1.5c0.2-0.2,0.4-0.2,0.7-0.1C94.6,399.8,94.9,399.9,95,400.2L95,400.2z M133.7,398.8
		c-0.1-0.1-0.1-0.2-0.1-0.2c-0.1-0.2-0.2-0.4-0.3-0.5c-0.2-0.3-0.7-0.4-1-0.2c-0.1,0.1-0.1,0.1-0.2,0.2c-0.1,0.2-0.2,0.3-0.3,0.5
		c0,0.1,0,0.2-0.1,0.2c-0.2-0.7,0-1.5,0.5-2.1c0.2-0.2,0.6-0.2,0.8,0C133.7,397.3,133.9,398.1,133.7,398.8L133.7,398.8z M96.9,407.6
		c0,0.1,0,0.1-0.1,0.2c-0.1-0.2-0.2-0.4-0.2-0.6c-0.1-0.3-0.4-0.6-0.6-0.8c-0.2-0.3-0.7-0.4-1-0.1l0,0h-0.2
		c-0.2-0.4-0.1-0.9,0.1-1.2c0.1-0.2,0.4-0.3,0.6-0.2c0.2,0.1,0.3,0.1,0.4,0.2C96.7,405.8,97.1,406.7,96.9,407.6L96.9,407.6z
		 M117.8,408.6c-0.1-1,0.6-2,1.6-2.1h0.2c0.6-0.1,1.2,0.2,1.5,0.8c0.1,0.1,0.1,0.3,0.1,0.4c-0.5-0.6-1.3-0.8-2-0.5s-1.1,0.8-1.2,1.9
		C117.9,408.9,117.9,408.7,117.8,408.6L117.8,408.6z M121.2,403.6c0.1-0.9,0.8-1.7,1.8-1.8c0.8-0.1,1.5,0.5,1.6,1.2
		c-0.5-0.6-1.4-0.8-2.1-0.4s-1.1,1.2-1,2C121.3,404.4,121.2,404,121.2,403.6L121.2,403.6z M113.1,408.4c-0.4-0.5-0.4-1.2,0-1.7
		c0.4-0.6,1.2-0.9,2-0.8c0.6,0.1,1.1,0.6,1.2,1.3c-0.5-0.6-1.3-0.9-2.1-0.6C113.5,406.9,113.1,407.6,113.1,408.4L113.1,408.4z
		 M108.3,407.4c-0.3-0.6-0.3-1.3,0.1-1.8c0.4-0.5,1.1-0.8,1.7-0.6c0.7,0.1,1.2,0.7,1.4,1.4c-0.4-0.7-1.2-1-2-0.7
		C108.7,405.9,108.3,406.7,108.3,407.4L108.3,407.4z M103.9,406.3c-0.4-0.6-0.4-1.3,0-1.8c0.3-0.5,0.9-0.7,1.5-0.6
		c0.7,0.2,1.2,0.7,1.3,1.4c-0.4-0.7-1.2-1-1.9-0.7C104.1,404.8,103.7,405.6,103.9,406.3L103.9,406.3z M94.1,406.1c0,0.1,0,0.1,0,0.2
		v0.1c-0.1-0.1-0.1-0.2-0.1-0.3c-0.1-0.5-0.3-1-0.7-1.4c-0.2-0.2-0.3-0.3-0.6-0.1c-0.1,0.1-0.1,0-0.1-0.1c-0.1-0.3-0.1-0.7,0-1
		c0-0.2,0.2-0.3,0.4-0.2h0.1c0.1,0.1,0.2,0.1,0.2,0.2c0.6,0.7,0.9,1.6,0.9,2.5L94.1,406.1z M135.7,396.2c0.2,0.3,0.3,0.5,0.3,0.8
		c0.1,0.4,0.1,0.9,0,1.3c-0.1-0.1-0.1-0.2-0.1-0.2c-0.1-0.3-0.2-0.6-0.4-0.8c-0.1-0.2-0.4-0.2-0.6-0.1c-0.1,0-0.1,0.1-0.1,0.2
		c-0.1,0.2-0.2,0.4-0.3,0.7c-0.1-0.6,0-1.3,0.3-1.8c0.1-0.2,0.4-0.3,0.7-0.2l0,0C135.6,396.1,135.7,396.1,135.7,396.2L135.7,396.2z
		 M100.1,405.1c-0.5-0.7-0.4-1.7,0.3-2.3c0.3-0.2,0.7-0.3,1-0.2c0.6,0.2,1.1,0.8,1.2,1.4c-0.5-0.6-1-1.1-1.8-0.8
		C100,403.5,100,404.4,100.1,405.1L100.1,405.1z M129,398c-0.4,0.4-0.5,1-0.5,1.6c0,0.1,0,0.1,0,0.2l0,0c-0.1,0-0.1,0-0.1-0.1
		c-0.3-0.7-0.2-1.5,0.2-2.1c0.2-0.4,0.7-0.7,1.2-0.6c0.5,0.1,0.9,0.6,1,1.1c-0.1-0.2-0.3-0.3-0.5-0.4
		C129.9,397.5,129.3,397.6,129,398L129,398z M96.4,396.6c-0.4,0.5-0.6,1.1-0.6,1.7c0,0.1,0,0.2,0,0.3l0,0c-0.1,0-0.1-0.1-0.1-0.2
		c-0.3-0.7-0.2-1.6,0.2-2.2c0.1-0.2,0.2-0.3,0.3-0.4c0.3-0.3,0.8-0.3,1.1,0c0.2,0.2,0.4,0.5,0.5,0.8c-0.1,0-0.1-0.1-0.2-0.1
		c-0.3-0.4-0.8-0.4-1.2-0.2C96.5,396.4,96.4,396.5,96.4,396.6L96.4,396.6z M94.1,389.6c0.1-0.2,0.3-0.4,0.5-0.5
		c0.2-0.1,0.5-0.1,0.7,0.1c0.1,0.1,0.1,0.2,0.1,0.3s0,0.1-0.1,0.1c-0.4-0.1-0.6,0.2-0.8,0.4c-0.5,0.6-0.7,1.3-0.8,2
		c0,0.1,0,0.1,0,0.2c-0.1-0.2-0.2-0.4-0.2-0.6C93.5,390.9,93.7,390.1,94.1,389.6L94.1,389.6z M134.9,393.1c-0.2-0.5-0.2-1.1,0-1.6
		c0.1-0.3,0.3-0.3,0.5-0.1c0.1,0.1,0.2,0.2,0.3,0.3c0.4,0.6,0.6,1.3,0.6,2v0.1l-0.1-0.2c-0.1-0.3-0.3-0.6-0.5-0.9
		c-0.1-0.1-0.2-0.3-0.4-0.2s-0.2,0.2-0.2,0.4C135,393,134.9,393,134.9,393.1L134.9,393.1z M98.6,402.5c-0.1-0.2-0.3-0.3-0.5-0.5
		c-0.4-0.3-0.9-0.3-1.2,0.1l0,0c-0.1,0.1-0.1,0.2-0.2,0.3c-0.2,0.4-0.2,0.8-0.2,1.2v0.2h-0.1c-0.3-0.6-0.3-1.2-0.1-1.8
		c0.1-0.5,0.6-0.8,1.1-0.7l0,0c0.2,0,0.3,0.1,0.4,0.3C98.3,401.7,98.5,402.1,98.6,402.5L98.6,402.5z M92.8,399.8
		c0,0.2,0,0.4-0.1,0.6c-0.1-0.2-0.1-0.4-0.1-0.6c-0.1-0.3-0.2-0.5-0.3-0.7c-0.2-0.2-0.4-0.2-0.5,0c-0.1,0.1-0.1,0.2-0.1,0.3
		c0,0.1,0,0.2-0.1,0.3c-0.1-0.6,0-1.1,0.2-1.7c0.2-0.3,0.4-0.3,0.7,0C92.5,398.6,92.8,399.2,92.8,399.8L92.8,399.8z M93.8,395.1
		c-0.3,0.6-0.5,1.3-0.4,1.9c0,0.1,0,0.2,0,0.2c-0.1,0-0.1-0.1-0.1-0.2c-0.3-0.8-0.1-1.8,0.3-2.5c0.2-0.4,0.5-0.5,0.8-0.5
		s0.5,0.4,0.6,0.8C94.4,394.6,94.1,394.6,93.8,395.1L93.8,395.1z M92.2,393.7c-0.2,0-0.3,0.1-0.3,0.2c-0.1,0.3-0.3,0.6-0.4,0.8
		c0-0.1,0-0.1,0-0.2c0.1-0.6,0.2-1.3,0.5-1.8c0.1-0.2,0.2-0.4,0.4-0.3c0.2,0.1,0.3,0.3,0.3,0.4c0.1,0.6,0.1,1.2-0.1,1.8
		c-0.1-0.2,0-0.4-0.1-0.6S92.3,393.7,92.2,393.7L92.2,393.7z M134.3,393.3c-0.1,0-0.1-0.1-0.2-0.1l-0.3-0.3
		c-0.2-0.2-0.5-0.3-0.8-0.1c-0.1,0.1-0.1,0.2-0.2,0.3c-0.1,0.4-0.2,0.8-0.1,1.2c0,0.1,0.1,0.2,0,0.2c-0.3-0.6-0.4-1.3-0.2-2
		c0.2-0.5,0.6-0.6,1-0.2C134,392.5,134.2,392.9,134.3,393.3L134.3,393.3z M133.5,387.3c0-0.2-0.1-0.4,0.1-0.5
		c0.2-0.1,0.4,0.1,0.5,0.2c0.3,0.3,0.5,0.7,0.7,1.1c-0.1-0.1-0.2-0.2-0.3-0.3c-0.1-0.1-0.2-0.1-0.3,0v0.1c0,0.3,0.1,0.6,0.2,0.9
		c0.1,0.2,0.2,0.3,0.2,0.5l0,0C134,388.7,133.7,388,133.5,387.3L133.5,387.3z M131.1,382.8c0-0.2,0-0.2,0.2-0.1
		c0.1,0,0.1,0.1,0.2,0.1c0.8,0.5,1.4,1.3,1.8,2.1c0.1,0.1,0.2,0.3,0,0.4s-0.2-0.2-0.2-0.2c-0.5-0.7-1.1-1.3-1.8-1.9
		C131.2,383.1,131.1,382.9,131.1,382.8L131.1,382.8z M92.6,389.6c0.2-0.7,0.5-1.3,1-1.9c0.1-0.1,0.2-0.2,0.3-0.1s0.2,0.2,0.1,0.3
		c-0.1,0.6-0.2,1.1-0.5,1.6c0-0.2,0.1-0.4,0.1-0.7c0-0.1,0-0.2-0.1-0.2s-0.2,0-0.2,0.1c-0.2,0.2-0.4,0.4-0.5,0.7
		C92.8,389.3,92.6,389.4,92.6,389.6L92.6,389.6z M132.8,387.6c0.5,0.4,0.8,1,1,1.6c-0.2-0.2-0.3-0.5-0.5-0.7
		c-0.1-0.2-0.3-0.3-0.5-0.4c-0.3-0.1-0.5,0-0.5,0.3c0,0.2,0,0.5,0,0.7c-0.2-0.4-0.3-0.9-0.3-1.3c0-0.2,0.2-0.3,0.3-0.3
		c0.1,0,0.1,0,0.2,0.1C132.6,387.5,132.7,387.5,132.8,387.6L132.8,387.6z M130.3,383.4c0.1-0.1,0.2-0.1,0.2,0
		c0.1,0.1,0.3,0.1,0.4,0.2c0.6,0.5,1.1,1,1.4,1.7c0,0.1,0.1,0.2,0.1,0.2s-0.1-0.1-0.2-0.2c-0.3-0.5-0.7-0.9-1.1-1.2
		c-0.2-0.1-0.4-0.3-0.6-0.1h-0.1C130.3,383.9,130.2,383.6,130.3,383.4L130.3,383.4z M127.7,379.5c0.1-0.1,0.1,0,0.2,0
		s0.1,0.1,0.2,0.1c0.7,0.5,1.3,1,2,1.5c0.1,0.1,0.2,0.2,0.3,0.4c0,0.1-0.1,0.1-0.1,0.1c-0.1,0-0.1-0.1-0.2-0.1
		c-0.5-0.5-1-0.9-1.6-1.2c-0.3-0.2-0.5-0.4-0.7-0.6C127.8,379.6,127.7,379.5,127.7,379.5L127.7,379.5z"/>
</g>
<g>
	<path d="M162.6,431.7l7.2,5.9l-3,3.6l-2.7-2.2l-5.1,6.1l2.7,2.2l-3,3.6l-2.7-2.2l-10.1,12.1l-4.4-3.6L162.6,431.7z"/>
	<path d="M158.5,470.7l20.5-26.2l6.6,4.2l-15.4,29.4l-4.2-2.7l3.2-6.3l-2-1.3l-4.3,5.5L158.5,470.7z M171.5,465.3l6.6-11.8
		l-8.2,10.8L171.5,465.3z"/>
	<path d="M181.3,484.4l14.1-29.9l7.7,3.6c0.9,0.4,1.7,1,2.2,1.6c0.5,0.6,0.8,1.4,0.9,2.2c0.1,0.8-0.1,1.7-0.6,2.6l-3,6.5
		c-0.4,0.8-0.9,1.4-1.4,1.8c-0.6,0.3-1.3,0.5-2.2,0.4c0.5,0.7,0.9,1.3,1,1.9c0.2,0.6,0,1.4-0.4,2.4l-3.6,7.8
		c-0.8,1.7-1.7,2.8-2.7,3.3c-1,0.5-2.2,0.4-3.6-0.2L181.3,484.4z M190.8,482.2l3.2-6.8c0.3-0.6,0.4-1,0.4-1.2c0-0.2-0.1-0.4-0.3-0.5
		c-0.2-0.1-0.6-0.3-1.2-0.7l-4.6,9.7c0.7,0.3,1.2,0.5,1.6,0.5C190.2,483.1,190.6,482.8,190.8,482.2z M197.6,468l2-4.3
		c0.3-0.7,0.4-1.2,0.3-1.5c-0.1-0.3-0.6-0.6-1.4-1l-3.5,7.5c0.8,0.4,1.3,0.5,1.7,0.4C197,469,197.3,468.6,197.6,468z"/>
	<path d="M206.5,495.3l9.8-31.7l8.9,2.7c1.3,0.4,2.2,1.1,2.7,2.2c0.5,1.1,0.5,2.4,0.1,3.9l-2.1,7c-0.3,0.9-0.6,1.6-0.9,2.1
		c-0.3,0.4-0.6,0.7-0.9,0.9c-0.3,0.1-0.9,0.3-1.6,0.5c0.7,0.6,1.1,1.3,1.2,1.9c0.1,0.6,0.1,1.4-0.2,2.3l-3.7,12.1l-5.6-1.7l3.4-11.1
		c0.3-1,0.5-1.7,0.4-2.1c0-0.4-0.4-0.6-1-0.8l-0.5-0.2l-4.2,13.6L206.5,495.3z M221.1,469.9l-0.6-0.2l-2.8,9.2l0.6,0.2
		c0.8,0.3,1.4,0,1.7-0.9l2.1-6.7C222.2,470.7,222,470.2,221.1,469.9z"/>
	<path d="M238.6,469.7l5.7,1.1l-5.9,32.6l-5.7-1.1L238.6,469.7z"/>
	<path d="M259.7,472.3l2.8,0.2c1.7,0.1,2.9,0.6,3.7,1.5c0.7,0.9,1,2.3,0.9,4.3l-1.3,22.4c-0.1,1.7-0.4,2.9-1,3.6
		c-0.5,0.7-1.6,1.3-3.2,1.6c1.2,0.3,2.3,0.4,3.3,0.5l-2.1,3.1c-0.8-0.3-1.5-0.5-2-0.7c-0.5-0.2-1.2-0.6-1.8-1
		c-0.6-0.4-1.4-1.1-2.1-1.9c-1.3-0.2-2.3-0.5-3-1c-0.7-0.4-1.2-1-1.4-1.8c-0.2-0.8-0.3-1.8-0.2-3.1l1.3-21.4
		c0.1-1.6,0.3-2.8,0.6-3.6c0.3-0.9,0.9-1.5,1.7-2C256.6,472.4,257.9,472.2,259.7,472.3z M259.9,499.8l1.3-21.2
		c0.1-1.1-0.3-1.6-1-1.7c-0.6,0-0.9,0.6-1,1.8l-1.2,20.8c0,0.5,0,0.9,0.1,1.1c0.1,0.3,0.4,0.4,0.8,0.4
		C259.5,501.3,259.8,500.8,259.9,499.8z"/>
	<path d="M278.8,499.5l-2.1-26.6l5.7-0.5l2.1,26.3c0.1,0.8,0.2,1.3,0.3,1.7c0.2,0.4,0.4,0.5,0.8,0.5s0.7-0.2,0.8-0.5
		c0.1-0.3,0.1-0.9,0.1-1.6l-2.1-26.6l5.7-0.5l2.1,26c0.2,2,0.1,3.5-0.2,4.6c-0.3,1.1-0.9,1.8-1.8,2.3c-0.9,0.5-2.2,0.8-3.9,0.9
		c-1.9,0.2-3.4,0.1-4.4-0.3c-1-0.3-1.7-0.9-2.1-1.8C279.2,502.7,278.9,501.4,278.8,499.5z"/>
	<path d="M299.3,470.4l9.2-1.9l1,4.5l-3.5,0.7l1.7,7.9l3.5-0.7l1,4.5l-3.5,0.7l2.3,10.7l3.5-0.7l1,4.5l-9.2,1.9L299.3,470.4z
		 M301.1,462.3l4.6-1l-1.1,5.4l-3.7,0.8L301.1,462.3z"/>
	<path d="M332.2,467.7l1.8,5l-5.3,1.9l-1.6-4.5c-0.3-0.8-0.5-1.2-0.7-1.5c-0.2-0.2-0.5-0.3-1-0.1c-0.6,0.2-0.8,0.9-0.4,2.1l1,2.9
		c0.3,0.7,0.5,1.3,0.8,1.6c0.3,0.4,0.6,0.6,1.1,0.7c2.6,0.6,4.3,1,5.2,1.2c0.9,0.2,1.6,0.6,2.2,1.2c0.6,0.5,1.1,1.4,1.5,2.6l2.4,7
		c0.7,2,0.7,3.5,0.1,4.5c-0.6,1-2,2-4.3,2.8c-2.3,0.8-4.1,1.1-5.4,0.8c-1.3-0.3-2.3-1.4-2.9-3.2l-2.8-8.2l5.3-1.9l2.6,7.5
		c0.3,0.8,0.7,1,1.4,0.8c0.6-0.2,0.8-0.7,0.5-1.4l-1.7-4.9c-0.3-1-0.6-1.7-0.9-2.1c-0.2-0.4-0.6-0.7-1-1c-0.5-0.3-1.1-0.5-1.9-0.7
		c-0.8-0.2-2-0.4-3.5-0.7c-1.7-0.4-2.8-1.3-3.3-2.9l-2.2-6.3c-0.7-2-0.6-3.5,0.3-4.4c0.9-0.9,2.5-1.7,4.7-2.5
		c1.4-0.5,2.6-0.7,3.5-0.7c1,0,1.8,0.4,2.5,1C331,465,331.6,466.1,332.2,467.7z"/>
	<path d="M354.1,449.9l7.9-5l2.5,3.9l-3,1.9l4.3,6.9l3-1.9l2.5,3.9l-3,1.9l5.9,9.3l3-1.9l2.5,3.9l-7.9,5L354.1,449.9z"/>
	<path d="M369.6,439.4l4.2-3.5l12.8,10.1l-10.3-12.2l3.8-3.2l21.4,25.3l-4.2,3.6l-12.6-9.9l10.1,12l-3.8,3.2L369.6,439.4z"/>
</g>
</svg>
