<?xml version="1.0" encoding="utf-8"?>
<!-- Generator: Adobe Illustrator 24.1.0, SVG Export Plug-In . SVG Version: 6.00 Build 0)  -->
<svg version="1.1" id="Calque_1" xmlns="http://www.w3.org/2000/svg" xmlns:xlink="http://www.w3.org/1999/xlink" x="0px" y="0px"
	 viewBox="0 0 1928.5 307.8" style="enable-background:new 0 0 1928.5 307.8;" xml:space="preserve">
<style type="text/css">
	.st0{fill:#FFFFFF;}
</style>
<path class="st0" d="M60,0.5c13.7,0.1,24,2.9,30.9,8.3c6.9,5.5,10.3,13.3,10.3,23.7c0,5.6-1.6,10.7-4.6,15.2s-7.4,7.9-13.2,10.2
	c4.3,1.5,8.3,3.5,11.9,6.2s6.6,6.1,8.8,10.3c2.2,4.2,3.3,9.3,3.3,15.3c-0.1,7.3-1.5,13.4-4.2,18.1c-2.7,4.8-6.3,8.5-10.8,11.3
	c-4.5,2.7-9.3,4.6-14.6,5.7c-5.3,1.1-10.6,1.6-15.9,1.6L0,126L1,0L60,0.5z M61.1,71l-41.2-0.3l-0.3,36.7l42.1,0.3
	c7.6,0.1,13.7-1.4,18.6-4.4c4.8-3,7.3-7.7,7.3-14.1c0-4.6-1.3-8.2-4.1-10.8c-2.7-2.7-6.1-4.5-10.2-5.7C69.2,71.6,65.2,71.1,61.1,71z
	 M58.4,19.2l-38.2-0.3L20,52l40.3,0.3c5.5-0.1,10.4-1.5,14.6-4.4c4.2-2.8,6.4-6.9,6.4-12.2c0-5.9-2.1-10.1-6.6-12.7
	C70.4,20.5,64.9,19.2,58.4,19.2z"/>
<path class="st0" d="M221.4,109l-0.1,18.7l-88.6-0.7l1-126l19.4,0.2l-0.8,107.3L221.4,109z"/>
<path class="st0" d="M249,1.9l89.5,0.7l-0.1,18.7l-70-0.5L268,54.1l60.1,0.5L328,73.3l-60.1-0.5l-0.3,36.5l70,0.5l-0.1,18.7
	l-89.5-0.7L249,1.9z"/>
<path class="st0" d="M478.9,3.6l-0.6,73.1c-0.1,10.4-2.5,19.7-7.3,27.8s-11.4,14.5-19.9,19.1c-8.4,4.6-18.1,6.9-29,6.8
	c-11-0.1-20.7-2.5-29-7.2s-14.8-11.2-19.5-19.4s-7-17.5-6.9-28l0.6-73.1l19.4,0.2l-0.6,71.8c-0.1,7.1,1.5,13.4,4.8,18.9
	s7.6,9.9,13.1,13.2c5.5,3.2,11.5,4.9,18.1,4.9c6.8,0.1,13.1-1.5,18.8-4.6c5.7-3.1,10.2-7.4,13.6-12.9s5.1-11.8,5.2-18.9l0.6-71.8
	L478.9,3.6z"/>
<path class="st0" d="M623.4,4.9c13.7,0.1,24,2.9,30.9,8.3c6.9,5.5,10.3,13.3,10.3,23.7c0,5.6-1.6,10.7-4.6,15.2s-7.4,7.9-13.2,10.2
	c4.3,1.5,8.3,3.5,11.9,6.2c3.6,2.7,6.6,6.1,8.8,10.3c2.2,4.2,3.3,9.3,3.3,15.3c-0.1,7.3-1.5,13.4-4.2,18.1
	c-2.7,4.8-6.3,8.5-10.8,11.3c-4.5,2.7-9.3,4.6-14.6,5.7s-10.6,1.6-15.9,1.6l-61.9-0.5l1-126L623.4,4.9z M624.5,75.4l-41.2-0.3
	l-0.3,36.7l42.1,0.3c7.6,0.1,13.8-1.4,18.6-4.4s7.3-7.7,7.3-14.1c0-4.6-1.3-8.2-4.1-10.8c-2.7-2.7-6.1-4.5-10.2-5.7
	C632.6,76,628.5,75.5,624.5,75.4z M621.8,23.6l-38.2-0.3l-0.3,33.1l40.3,0.3c5.5-0.1,10.4-1.5,14.6-4.4c4.2-2.8,6.4-6.9,6.4-12.2
	c0-5.9-2.1-10.1-6.6-12.7C633.7,24.9,628.3,23.6,621.8,23.6z"/>
<path class="st0" d="M784.7,113.4l-0.1,18.7l-88.6-0.7l1-126l19.4,0.2l-0.8,107.3L784.7,113.4z"/>
<path class="st0" d="M905.7,133.1L893,102.4l-61.2-0.5l-13.4,30.5l-20-0.2L853.3,6.7l21.1,0.2l52.5,126.4L905.7,133.1z M853.1,53.1
	l-13.2,30.1l45.4,0.4l-13.1-31.1c-1.5-4-3.1-8-4.6-12.2s-3.1-8.5-4.6-12.9c-1.7,4.5-3.4,9-5,13.3C856.4,45,854.8,49.2,853.1,53.1z"
	/>
<path class="st0" d="M1047.8,8.2l19.4,0.2l-1,126l-18.5-0.1l-83.5-98c0.7,7.4,1.3,14.9,2,22.4s1,15,0.9,22.6l-0.4,52.4l-19.4-0.2
	l1-126l18.2,0.1L1050,108c-0.8-5.9-1.4-12.2-1.7-18.9c-0.4-6.7-0.6-13.5-0.7-20.3s-0.1-13.2,0-19.2L1047.8,8.2z"/>
<path class="st0" d="M1206.6,118.7c-2.9,2.9-6.9,5.7-11.9,8.5s-10.8,5.1-17.2,7c-6.5,1.9-13.4,2.8-20.7,2.7
	c-9.1-0.1-17.6-1.7-25.5-4.8s-14.8-7.5-20.7-13.2c-5.9-5.7-10.5-12.5-13.7-20.5s-4.8-16.9-4.7-26.8c0.1-9.2,1.9-17.7,5.4-25.5
	s8.4-14.5,14.6-20.2s13.3-10.1,21.3-13.2c7.9-3.1,16.4-4.6,25.2-4.6c7.4,0.1,14.4,1.2,20.9,3.3c6.5,2.2,12.3,4.9,17.4,8.1
	c5.1,3.3,9.1,6.7,12.1,10.4l-12.5,14.7c-5.2-5-11.1-9.1-17.5-12.3s-13.5-4.9-21.3-4.9c-7.7-0.1-15,1.7-22,5.2s-12.7,8.7-17.1,15.3
	c-4.4,6.7-6.7,14.6-6.8,23.9c-0.1,10.1,2.1,18.5,6.6,25.3c4.4,6.8,10.3,11.9,17.5,15.3c7.2,3.5,15,5.2,23.4,5.3
	c8.5,0.1,15.9-1.5,22.2-4.8c6.3-3.2,11.5-6.7,15.6-10.2L1206.6,118.7z"/>
<path class="st0" d="M1346.8,9.5c7.9,0.1,15.3,1.1,22,3.2c6.8,2.1,12.7,4.8,17.8,8.1c5.1,3.3,9.2,6.8,12.2,10.5l-12.7,13.4
	c-5.4-4.7-11.4-8.6-18-11.7s-13.8-4.6-21.5-4.7c-9.5-0.1-18,1.8-25.6,5.7s-13.6,9.2-18,16c-4.4,6.7-6.7,14.4-6.8,23.1
	c-0.1,9.4,2.2,17.5,6.8,24.4c4.6,6.9,10.7,12.3,18.2,16.1c7.5,3.8,15.7,5.7,24.6,5.8c7.4,0.1,14.3-1.1,20.6-3.4
	c6.3-2.3,11.4-5.6,15.3-9.7s5.8-8.9,5.9-14.3l-41.9-0.3l0.1-19.1l62.3,0.5c0.2,1.6,0.4,3.2,0.6,4.9c0.2,1.7,0.2,3.3,0.2,4.9
	c-0.1,6.6-1.1,13-3.2,19.1s-5.1,11.3-8.9,15.6c-5.3,6.6-12.5,11.7-21.5,15.4s-19.2,5.5-30.7,5.4c-9.5-0.1-18.4-1.7-26.7-4.8
	c-8.3-3.1-15.6-7.6-21.9-13.3c-6.3-5.7-11.2-12.6-14.8-20.6c-3.5-8-5.3-16.9-5.2-26.6c0.1-9.1,1.9-17.5,5.5-25.2s8.6-14.5,15.1-20.2
	c6.5-5.8,14-10.2,22.5-13.4C1327.8,10.9,1337,9.4,1346.8,9.5z"/>
<path class="st0" d="M1535.3,51.6c-0.1,8.2-2.6,15.6-7.6,22.2c-5,6.6-11.3,11.4-19,14.3l32,50.1l-23.9-0.4l-29.7-47.2l-34.4-0.3
	l-0.4,47l-19.4-0.2l1-126l61.6,0.5c6.8,0.1,13.3,1.8,19.4,5.1s11,8,14.8,14.1C1533.5,36.9,1535.4,43.8,1535.3,51.6z M1491.2,30.4
	l-38-0.3l-0.3,41.6l41,0.3c4.2,0,7.9-0.9,11.1-2.8s5.7-4.4,7.4-7.6c1.8-3.2,2.7-6.6,2.7-10.3c0-4.1-1-7.7-3.2-10.8
	c-2.1-3.1-5-5.6-8.7-7.4C1499.7,31.3,1495.6,30.4,1491.2,30.4z"/>
<path class="st0" d="M1569.1,12.3l89.5,0.7l-0.1,18.7l-70-0.5l-0.3,33.3l60.1,0.5l-0.1,18.7l-60.1-0.5l-0.3,36.5l70,0.5l-0.1,18.7
	l-89.5-0.7L1569.1,12.3z"/>
<path class="st0" d="M1689.3,13.2l89.5,0.7l-0.1,18.7l-70-0.5l-0.3,33.3l60.1,0.5l-0.1,18.7l-60.1-0.5l-0.3,36.5l70,0.5l-0.1,18.7
	l-89.5-0.7L1689.3,13.2z"/>
<path class="st0" d="M1909.1,14.9l19.4,0.2l-1,126L1909,141l-83.5-98c0.7,7.4,1.3,14.9,2,22.4s1,15,0.9,22.6l-0.4,52.4l-19.4-0.2
	l1-126l18.2,0.1l83.5,100.4c-0.8-5.9-1.4-12.2-1.7-18.9c-0.4-6.7-0.6-13.5-0.7-20.3c-0.1-6.8-0.1-13.2,0-19.2L1909.1,14.9z"/>
<path class="st0" d="M248.7,277.6l0.5-68.7l9.4,0.1l-0.5,60.2l31,0.2l-0.1,8.4L248.7,277.6z"/>
<path class="st0" d="M325.2,215.7c-0.1,8.3-4.3,15-12.6,20.2l-3.1-4.2l3.5-3c1.7-1.5,2.6-3.2,2.6-5.4c0-1.3-0.7-2.8-2.3-4.5
	c-1.5-1.7-2.3-3.3-2.3-4.7c0-4.6,2.3-6.9,6.9-6.8C322.8,207.4,325.2,210.2,325.2,215.7z"/>
<path class="st0" d="M371.1,218.3l-0.1,19.1l22.7,0.2l-0.1,8l-22.7-0.2l-0.2,24.7l31.1,0.2l-0.1,8.4l-40.5-0.3l0.5-68.7l41,0.3
	l-0.1,8.4L371.1,218.3z M392.5,188.8l-10.7,15.5l-6.6-0.1l8-15.5L392.5,188.8z"/>
<path class="st0" d="M457.4,219l-0.5,60.2l-9.4-0.1l0.5-60.2l-21.8-0.2l0.1-8.4l54,0.4l-0.1,8.4L457.4,219z"/>
<path class="st0" d="M508.5,279.7L509,211l9.4,0.1l-0.5,68.7L508.5,279.7z"/>
<path class="st0" d="M616.9,285.6l-1.5,9.1c-16.4-0.1-27.1-4.8-32.1-13.9c-1,0.4-3.1,0.6-6.2,0.6c-8.7-0.1-15.4-3.5-20.2-10.3
	s-7.2-15.5-7.1-26c0.1-9.9,2.6-18.2,7.6-24.9s11.8-10,20.3-9.9c9.5,0.1,16.8,3.2,21.8,9.4s7.5,14.8,7.4,25.8
	c-0.1,15.8-4.9,26.6-14.4,32.4c3.4,5,9.1,7.6,17.1,7.6L616.9,285.6z M577.6,218.7c-5.8,0-10.3,2.3-13.3,7
	c-3.1,4.7-4.6,11.2-4.7,19.4c-0.1,7.9,1.4,14.5,4.5,19.8c3.1,5.3,7.4,8,13.1,8c6.4,0.1,11.3-2.4,14.7-7.2c3.4-4.9,5.1-11.6,5.2-20.3
	C597.2,227.7,590.7,218.8,577.6,218.7z"/>
<path class="st0" d="M637.4,212l9.4,0.1l-0.4,47c0,4.2,1.3,7.6,3.9,10.4c2.6,2.7,6.1,4.1,10.5,4.1c4.6,0,8.3-1.2,11-3.9
	s4-6.2,4.1-10.7l0.4-46.8l9.4,0.1l-0.4,47.8c-0.1,6.9-2.3,12.3-6.6,16.2c-4.4,3.9-10.3,5.8-17.7,5.7c-7.7-0.1-13.6-2-17.7-5.9
	c-4.1-3.8-6.2-9.3-6.1-16.5L637.4,212z"/>
<path class="st0" d="M728.1,221.1l-0.1,19.1l22.7,0.2l-0.1,8l-22.7-0.2l-0.2,24.7l31.1,0.2l-0.1,8.4l-40.5-0.3l0.5-68.7l41,0.3
	l-0.1,8.4L728.1,221.1z"/>
<path class="st0" d="M814.4,221.8l-0.5,60.2l-9.4-0.1l0.5-60.2l-21.8-0.2l0.1-8.4l54,0.4l-0.1,8.4L814.4,221.8z"/>
<path class="st0" d="M889.3,222.4l-0.5,60.2l-9.4-0.1l0.5-60.2l-21.8-0.2l0.1-8.4l54,0.4l-0.1,8.4L889.3,222.4z"/>
<path class="st0" d="M948.6,222.9l-0.1,19.1l22.7,0.2l-0.1,8l-22.7-0.2l-0.2,24.7l31.1,0.2l-0.1,8.4l-40.5-0.3l0.5-68.7l41,0.3
	l-0.1,8.4L948.6,222.9z"/>
<path class="st0" d="M1067.3,223.8l-0.1,19.1l24.1,0.2l-0.1,8l-24.1-0.2l-0.3,33.2l-9.4-0.1l0.5-68.7l42.4,0.3l-0.1,8.4
	L1067.3,223.8z"/>
<path class="st0" d="M1165.2,284.8l-18.1-29.6c-2.1,0-5.4-0.2-9.9-0.5l-0.2,30l-9.4-0.1l0.5-68.7c0.3,0,2.8-0.1,7.3-0.3
	s7.8-0.3,9.9-0.3c16.5,0.1,24.7,6.8,24.6,19.9c0,4.3-1.4,8.2-4.1,11.6c-2.7,3.4-5.9,5.6-9.5,6.4l19.7,31.7L1165.2,284.8z
	 M1137.4,224.3l-0.2,22.3c2.2,0.3,4.4,0.5,6.6,0.5c5.6,0,9.7-0.8,12.3-2.6c2.6-1.8,3.9-5,3.9-9.7c0-3.8-1.3-6.6-4.1-8.3
	c-2.7-1.7-7.1-2.6-13-2.6C1142,223.9,1140.1,224.1,1137.4,224.3z"/>
<path class="st0" d="M1241.2,285.4l-4.6-14.5l-25.5-0.2l-5.2,14.4l-10.5-0.1l28.4-69.4h2.5l25.3,69.8L1241.2,285.4z M1224.4,233.7
	l-10.9,30.2l20.4,0.2L1224.4,233.7z"/>
<path class="st0" d="M1322.4,287l-35.1-50.5l-0.4,49.3l-8.9-0.1l0.5-68.7h3.8l34.2,47.8l0.4-47.5l8.9,0.1l-0.5,69.6H1322.4z"/>
<path class="st0" d="M1402.8,220.5l-3.2,8c-3-2.2-7.7-3.3-14.1-3.4c-6,0-10.9,2.5-14.6,7.7s-5.6,11.8-5.6,20
	c-0.1,7.8,1.8,14.2,5.5,19.1s8.5,7.4,14.4,7.4c6.4,0.1,11.4-2.2,14.9-6.7l5.1,7.2c-5.5,5.4-12.5,8-21.1,7.9c-9-0.1-16-3.4-21.1-9.9
	s-7.6-15.1-7.5-25.7c0.1-10.2,2.9-18.7,8.5-25.5c5.6-6.7,12.7-10.1,21.4-10C1392.8,216.7,1398.6,218,1402.8,220.5z M1373.1,307.8
	l-1.1-4.6c2.4,0,4.5-0.4,6.1-1.2c1.6-0.8,2.5-2,2.5-3.5c0-2.3-1.4-3.5-4.2-3.5v-5.6c3.1,0,5.5,0.9,7.2,2.7c1.7,1.8,2.5,3.9,2.5,6.4
	c0,2.9-1.2,5.2-3.5,6.9C1380.4,307,1377.2,307.8,1373.1,307.8z"/>
<path class="st0" d="M1474.1,287.2l-4.6-14.5l-25.5-0.2l-5.2,14.4l-10.5-0.1l28.4-69.4h2.5l25.3,69.8H1474.1z M1457.3,235.5
	l-10.9,30.1l20.4,0.2L1457.3,235.5z"/>
<path class="st0" d="M1512.5,287.5l0.5-68.7l9.4,0.1l-0.5,68.7L1512.5,287.5z"/>
<path class="st0" d="M1553.7,284.7l3.5-8.6c1.7,1.3,3.9,2.4,6.5,3.3s4.9,1.3,7,1.3c3.7,0,6.6-0.9,8.8-2.9c2.2-2,3.4-4.5,3.4-7.6
	c0-2.3-0.6-4.5-1.8-6.5c-1.2-2-4.3-4.2-9.3-6.6l-5.5-2.6c-4.7-2.2-7.9-4.8-9.8-7.9c-1.8-3-2.7-6.6-2.7-10.8c0-5.1,1.9-9.4,5.5-12.7
	c3.7-3.3,8.3-5,14-5c7.6,0.1,12.9,1.3,15.8,3.8l-2.8,8.1c-1.2-0.9-3.1-1.8-5.7-2.7s-4.9-1.3-7.1-1.3c-3.2,0-5.7,0.9-7.5,2.7
	s-2.8,4.1-2.8,7c0,1.8,0.3,3.3,0.9,4.8c0.6,1.4,1.5,2.7,2.7,3.6c1.2,1,3.6,2.4,7.2,4.1l5.6,2.7c4.7,2.3,7.9,4.9,9.8,8
	s2.8,7,2.7,11.8c0,5.2-2.1,9.5-6.3,13.1c-4.2,3.6-9.7,5.3-16.7,5.3C1563.2,289.1,1558,287.6,1553.7,284.7z"/>
<path class="st0" d="M1632,228.2l-0.1,19.1l22.7,0.2l-0.1,8l-22.7-0.2l-0.2,24.7l31.1,0.2l-0.1,8.4l-40.5-0.3l0.5-68.7l41,0.3
	l-0.1,8.4L1632,228.2z"/>
</svg>
